<svg xmlns="http://www.w3.org/2000/svg" xmlns:xlink="http://www.w3.org/1999/xlink" version="1.1" x="0px" y="0px" viewBox="0 0 413.4 283.9" enable-background="new 0 0 413.4 283.9" xml:space="preserve"><style>.style0{fill:	#20191B;}.style1{fill:	none;}.style2{fill:	#FFFFFF;}.style3{stroke-linejoin:	round;stroke:	#FFFFFF;stroke-linecap:	round;fill:	none;stroke-width:	0;}</style><g><path d="M122.1 128.9H96.4c-0.3 0-0.5 0.2-0.5 0.5v5.9c0 0.3 0.2 0.5 0.5 0.5l9.4 0v18.7c0 0 0 0.1 0 0.1 c0 0.2 0.2 0.4 0.5 0.4h5.9c0.3 0 0.5-0.2 0.5-0.5v-18.7l9.4 0c0.3 0 0.5-0.2 0.5-0.5v-5.9C122.6 129.2 122.3 128.9 122.1 128.9z" class="style0"/><path d="M82.5 128.9h-5.9c-0.3 0-0.5 0.2-0.5 0.5v12.5c0 0 0 0 0 0c0 3.4-2.8 6.1-6.1 6.1s-6.1-2.8-6.1-6.1 c0 0 0 0 0 0v-12.5c0-0.3-0.2-0.5-0.5-0.5h-5.9c-0.3 0-0.5 0.2-0.5 0.5V142c0 7.2 5.8 13 13 13s13-5.8 13-13v-12.5 C83 129.2 82.8 128.9 82.5 128.9z" class="style0"/><path d="M33.7 135.8c2.4 0 4.5 1.3 5.5 3.5c0.1 0.1 0.2 0.2 0.4 0.3c0 0 0.1 0 0.1 0c0.1 0 0.3-0.1 0.3-0.1l4.3-4.3 c0.2-0.2 0.2-0.4 0.1-0.6c-2.4-3.5-6.4-5.5-10.7-5.5c-7.2 0-13 5.8-13 13c0 7.2 5.8 13 13 13c4.2 0 8.2-2.1 10.7-5.5 c0.1-0.2 0.1-0.5-0.1-0.6l-4.3-4.3c-0.1-0.1-0.2-0.1-0.3-0.1c0 0-0.1 0-0.1 0c-0.2 0-0.3 0.1-0.4 0.3c-1 2.1-3.2 3.5-5.5 3.5 c-3.4 0-6.1-2.8-6.1-6.1C27.5 138.6 30.3 135.8 33.7 135.8z" class="style0"/></g><g><path d="M347.9 84.2c-0.8-0.9-1.6-1.9-2.4-2.8c-0.5-0.5-1-1-1.5-1.5c-0.8-0.8-1.5-1.6-2.3-2.4c-0.5-0.5-1.1-1-1.7-1.5 c-0.8-0.7-1.6-1.4-2.4-2.1c-0.6-0.5-1.2-1-1.8-1.5c-0.8-0.6-1.6-1.3-2.4-1.9c-0.6-0.5-1.3-0.9-1.9-1.4c-0.8-0.6-1.7-1.2-2.5-1.7 c-0.7-0.4-1.3-0.9-2-1.3c-0.9-0.5-1.7-1.1-2.6-1.6c-0.7-0.4-1.4-0.8-2.1-1.2c-0.9-0.5-1.8-0.9-2.7-1.4c-0.7-0.4-1.4-0.7-2.2-1 c-0.9-0.4-1.8-0.8-2.8-1.2c-0.7-0.3-1.5-0.6-2.2-0.9c-0.9-0.4-1.9-0.7-2.9-1c-0.8-0.3-1.5-0.5-2.3-0.8c-1-0.3-2-0.6-3-0.9 c-0.8-0.2-1.5-0.4-2.3-0.6c-1-0.3-2.1-0.5-3.1-0.7c-0.8-0.2-1.5-0.3-2.3-0.5c-1.1-0.2-2.2-0.4-3.3-0.5c-0.7-0.1-1.4-0.2-2.2-0.3 c-1.2-0.2-2.5-0.3-3.7-0.4c-0.6-0.1-1.2-0.1-1.8-0.2c-1.9-0.1-3.7-0.2-5.6-0.2c-1.5 0-3 0-4.5 0.1c-0.5 0-1 0.1-1.5 0.1 c-1 0.1-2 0.1-2.9 0.2c-0.6 0.1-1.2 0.1-1.7 0.2c-0.9 0.1-1.7 0.2-2.6 0.3c-0.6 0.1-1.2 0.2-1.8 0.3c-0.8 0.1-1.7 0.3-2.5 0.4 c-0.6 0.1-1.2 0.3-1.8 0.4c-0.8 0.2-1.6 0.4-2.4 0.5c-0.6 0.2-1.2 0.3-1.8 0.5c-0.8 0.2-1.5 0.4-2.3 0.7c-0.6 0.2-1.2 0.4-1.8 0.6 c-0.7 0.2-1.5 0.5-2.2 0.8c-0.6 0.2-1.2 0.4-1.8 0.7c-0.7 0.3-1.5 0.6-2.2 0.9c-0.6 0.2-1.2 0.5-1.8 0.7c-0.7 0.3-1.4 0.6-2.1 1 c-0.6 0.3-1.1 0.5-1.7 0.8c-0.7 0.3-1.4 0.7-2.1 1.1c-0.6 0.3-1.1 0.6-1.7 0.9c-0.7 0.4-1.4 0.8-2 1.2c-0.5 0.3-1.1 0.6-1.6 1 c-0.7 0.4-1.3 0.8-2 1.3c-0.5 0.3-1 0.7-1.5 1c-0.7 0.4-1.3 0.9-1.9 1.4c-0.5 0.4-1 0.7-1.5 1.1c-0.6 0.5-1.3 1-1.9 1.5 c-0.5 0.4-0.9 0.7-1.4 1.1c-0.6 0.5-1.3 1.1-1.9 1.6c-0.4 0.4-0.9 0.7-1.3 1.1c-0.6 0.6-1.3 1.2-1.9 1.8c-0.4 0.4-0.8 0.7-1.1 1.1 c-0.7 0.7-1.3 1.3-1.9 2c-0.3 0.3-0.6 0.7-1 1c-0.7 0.8-1.5 1.7-2.2 2.5c-0.2 0.2-0.4 0.4-0.6 0.7c-1.8 2.2-3.5 4.4-5 6.7 c-0.2 0.3-0.4 0.7-0.6 1c-0.6 0.8-1.1 1.7-1.6 2.6c-0.3 0.4-0.5 0.9-0.8 1.3c-0.5 0.8-0.9 1.6-1.4 2.3c-0.3 0.5-0.5 1-0.8 1.5 c-0.4 0.8-0.8 1.5-1.2 2.3c-0.3 0.5-0.5 1.1-0.7 1.6c-0.3 0.7-0.7 1.5-1 2.3c-0.2 0.6-0.5 1.1-0.7 1.7c-0.3 0.7-0.6 1.5-0.9 2.3 c-0.2 0.6-0.4 1.2-0.6 1.8c-0.3 0.8-0.5 1.5-0.8 2.3c-0.2 0.6-0.4 1.2-0.6 1.8c-0.2 0.8-0.4 1.5-0.7 2.3c-0.2 0.6-0.3 1.2-0.5 1.9 c-0.2 0.8-0.4 1.5-0.5 2.3c-0.1 0.6-0.3 1.3-0.4 1.9c-0.2 0.8-0.3 1.6-0.4 2.3c-0.1 0.7-0.2 1.3-0.3 2c-0.1 0.8-0.2 1.6-0.3 2.4 c-0.1 0.7-0.2 1.3-0.2 2c0 0.3 0 0.6-0.1 0.9h14.9c3.7-37.5 35.4-66.9 73.9-66.9c25.2 0 48 12.4 61.7 33L352.5 90 c-1.1-1.5-2.2-3-3.4-4.4C348.7 85.1 348.3 84.7 347.9 84.2z" class="style1"/><path d="M191.2 149.3c0 0.3 0 0.6 0.1 0.9c0.1 0.7 0.1 1.3 0.2 2c0.1 0.8 0.2 1.6 0.3 2.4c0.1 0.7 0.2 1.3 0.3 2 c0.1 0.8 0.3 1.6 0.4 2.3c0.1 0.6 0.3 1.3 0.4 1.9c0.2 0.8 0.3 1.5 0.5 2.3c0.2 0.6 0.3 1.2 0.5 1.9c0.2 0.8 0.4 1.5 0.7 2.3 c0.2 0.6 0.4 1.2 0.6 1.8c0.2 0.8 0.5 1.5 0.8 2.3c0.2 0.6 0.4 1.2 0.6 1.8c0.3 0.8 0.6 1.5 0.9 2.3c0.2 0.6 0.5 1.1 0.7 1.7 c0.3 0.8 0.7 1.5 1 2.3c0.2 0.5 0.5 1.1 0.7 1.6c0.4 0.8 0.8 1.5 1.2 2.3c0.3 0.5 0.5 1 0.8 1.5c0.4 0.8 0.9 1.6 1.4 2.4 c0.3 0.4 0.5 0.9 0.7 1.3c0.5 0.9 1.1 1.7 1.7 2.6c0.2 0.3 0.4 0.6 0.6 1c1.6 2.3 3.3 4.6 5 6.7c0.2 0.2 0.4 0.4 0.6 0.7 c0.7 0.8 1.4 1.7 2.2 2.5c0.3 0.3 0.6 0.7 1 1c0.6 0.7 1.3 1.4 1.9 2c0.4 0.4 0.8 0.7 1.1 1.1c0.6 0.6 1.2 1.2 1.9 1.8 c0.4 0.4 0.8 0.7 1.3 1.1c0.6 0.5 1.2 1.1 1.9 1.6c0.5 0.4 0.9 0.7 1.4 1.1c0.6 0.5 1.3 1 1.9 1.5c0.5 0.4 1 0.7 1.5 1.1 c0.6 0.5 1.3 0.9 1.9 1.4c0.5 0.3 1 0.7 1.5 1c0.7 0.4 1.3 0.9 2 1.3c0.5 0.3 1.1 0.6 1.6 1c0.7 0.4 1.3 0.8 2 1.2 c0.5 0.3 1.1 0.6 1.7 0.9c0.7 0.4 1.4 0.7 2.1 1.1c0.6 0.3 1.1 0.6 1.7 0.8c0.7 0.3 1.4 0.6 2.1 1c0.6 0.3 1.2 0.5 1.8 0.8 c0.7 0.3 1.4 0.6 2.2 0.9c0.6 0.2 1.2 0.5 1.8 0.7c0.7 0.3 1.5 0.5 2.2 0.8c0.6 0.2 1.2 0.4 1.8 0.6c0.8 0.2 1.5 0.4 2.3 0.7 c0.6 0.2 1.2 0.3 1.8 0.5c0.8 0.2 1.6 0.4 2.4 0.5c0.6 0.1 1.2 0.3 1.8 0.4c0.8 0.2 1.6 0.3 2.5 0.4c0.6 0.1 1.2 0.2 1.8 0.3 c0.9 0.1 1.7 0.2 2.6 0.3c0.6 0.1 1.2 0.2 1.7 0.2c1 0.1 2 0.2 2.9 0.2c0.5 0 1 0.1 1.5 0.1c1.5 0.1 3 0.1 4.5 0.1 c1.9 0 3.7-0.1 5.6-0.2c0.6 0 1.2-0.1 1.8-0.2c1.2-0.1 2.5-0.2 3.7-0.4c0.7-0.1 1.4-0.2 2.2-0.3c1.1-0.2 2.2-0.3 3.3-0.5 c0.8-0.1 1.5-0.3 2.3-0.5c1-0.2 2.1-0.4 3.1-0.7c0.8-0.2 1.5-0.4 2.3-0.6c1-0.3 2-0.6 3-0.9c0.8-0.2 1.5-0.5 2.3-0.8 c1-0.3 1.9-0.7 2.9-1c0.7-0.3 1.5-0.6 2.2-0.9c0.9-0.4 1.9-0.8 2.8-1.2c0.7-0.3 1.5-0.7 2.2-1c0.9-0.4 1.8-0.9 2.7-1.4 c0.7-0.4 1.4-0.8 2.1-1.2c0.9-0.5 1.7-1 2.6-1.6c0.7-0.4 1.4-0.8 2-1.3c0.9-0.6 1.7-1.1 2.5-1.7c0.6-0.5 1.3-0.9 1.9-1.4 c0.8-0.6 1.6-1.3 2.4-1.9c0.6-0.5 1.2-1 1.8-1.5c0.8-0.7 1.6-1.4 2.4-2.1c0.6-0.5 1.1-1 1.7-1.5c0.8-0.8 1.6-1.6 2.3-2.4 c0.5-0.5 1-1 1.5-1.5c0.8-0.9 1.6-1.8 2.4-2.8c0.4-0.5 0.8-0.9 1.2-1.4c1.2-1.4 2.3-2.9 3.4-4.4l-10.7-10.7 c-13.7 20.6-36.5 33-61.7 33c-38.5 0-70.2-29.4-73.9-66.9H191.2z" class="style1"/><path d="M357.3 211.4c-0.6 0.6-1.1 1.3-1.7 1.9c-0.9 1-1.9 1.9-2.9 2.9c-0.5 0.5-1 1.1-1.6 1.6 c-1.2 1.2-2.5 2.3-3.8 3.4c-0.3 0.2-0.6 0.5-0.9 0.8c-1.6 1.3-3.2 2.6-4.9 3.9c-0.5 0.4-1 0.7-1.5 1c-1.2 0.9-2.4 1.7-3.6 2.5 c-0.7 0.4-1.4 0.8-2 1.2c-1.1 0.7-2.2 1.3-3.3 2c-0.7 0.4-1.5 0.8-2.3 1.2c-1.1 0.6-2.2 1.1-3.3 1.7c-0.8 0.4-1.6 0.8-2.4 1.1 c-1.1 0.5-2.2 1-3.3 1.4c-0.8 0.3-1.7 0.7-2.5 1c-1.1 0.4-2.2 0.8-3.3 1.2c-0.9 0.3-1.7 0.6-2.6 0.9c-1.1 0.4-2.3 0.7-3.4 1 c-0.9 0.2-1.7 0.5-2.6 0.7c-1.2 0.3-2.4 0.6-3.6 0.8c-0.9 0.2-1.7 0.4-2.6 0.5c-1.3 0.2-2.5 0.4-3.8 0.6c-0.8 0.1-1.6 0.3-2.5 0.4 c-1.4 0.2-2.8 0.3-4.3 0.4c-0.7 0.1-1.4 0.1-2.1 0.2c-2.1 0.1-4.3 0.2-6.4 0.2c-1.8 0-3.5 0-5.2-0.1c-0.6 0-1.2-0.1-1.7-0.1 c-1.1-0.1-2.3-0.1-3.4-0.3c-0.7-0.1-1.4-0.2-2-0.2c-1-0.1-2-0.2-3-0.4c-0.7-0.1-1.4-0.2-2.2-0.4c-1-0.2-1.9-0.3-2.9-0.5 c-0.7-0.1-1.5-0.3-2.2-0.5c-0.9-0.2-1.8-0.4-2.7-0.6c-0.7-0.2-1.5-0.4-2.2-0.6c-0.9-0.2-1.8-0.5-2.6-0.8c-0.7-0.2-1.5-0.5-2.2-0.7 c-0.9-0.3-1.7-0.6-2.5-0.9c-0.7-0.3-1.4-0.5-2.2-0.8c-0.8-0.3-1.7-0.6-2.5-1c-0.7-0.3-1.4-0.6-2.1-0.9c-0.8-0.4-1.6-0.7-2.4-1.1 c-0.7-0.3-1.4-0.7-2.1-1c-0.8-0.4-1.6-0.8-2.3-1.2c-0.7-0.4-1.4-0.7-2-1.1c-0.8-0.4-1.5-0.9-2.3-1.3c-0.7-0.4-1.3-0.8-2-1.2 c-0.7-0.5-1.5-0.9-2.2-1.4c-0.6-0.4-1.3-0.8-1.9-1.3c-0.7-0.5-1.4-1-2.1-1.5c-0.6-0.5-1.2-0.9-1.8-1.4c-0.7-0.5-1.4-1.1-2-1.6 c-0.6-0.5-1.2-1-1.8-1.5c-0.7-0.6-1.3-1.1-2-1.7c-0.6-0.5-1.1-1-1.7-1.5c-0.6-0.6-1.3-1.2-1.9-1.8c-0.5-0.5-1.1-1-1.6-1.6 c-0.6-0.6-1.2-1.3-1.8-1.9c-0.5-0.5-1-1.1-1.5-1.6c-0.6-0.7-1.2-1.3-1.8-2c-0.5-0.6-1-1.1-1.4-1.7c-0.6-0.7-1.1-1.4-1.7-2.1 c-0.4-0.6-0.9-1.1-1.3-1.7c-0.6-0.8-1.1-1.5-1.6-2.3c-0.4-0.6-0.8-1.1-1.2-1.7c-0.6-0.9-1.1-1.7-1.7-2.6c-0.3-0.5-0.7-1-1-1.5 c-0.7-1.2-1.4-2.4-2.1-3.7c-0.1-0.2-0.2-0.4-0.3-0.6c-0.8-1.4-1.5-2.9-2.2-4.4c-0.2-0.5-0.5-1-0.7-1.5c-0.5-1-0.9-2-1.4-3 c-0.3-0.6-0.5-1.2-0.7-1.9c-0.4-0.9-0.7-1.8-1.1-2.8c-0.2-0.7-0.5-1.3-0.7-2c-0.3-0.9-0.6-1.8-0.9-2.7c-0.2-0.7-0.4-1.4-0.6-2.1 c-0.3-0.9-0.5-1.8-0.8-2.7c-0.2-0.7-0.4-1.5-0.5-2.2c-0.2-0.9-0.4-1.8-0.6-2.7c-0.2-0.8-0.3-1.5-0.4-2.3c-0.2-0.9-0.3-1.8-0.5-2.7 c-0.1-0.8-0.2-1.5-0.3-2.3c-0.1-0.9-0.2-1.8-0.4-2.8c-0.1-0.8-0.2-1.6-0.2-2.4c-0.1-0.6-0.1-1.1-0.2-1.7h-15 c3.8 62.1 55.6 111.5 118.6 111.5c36.6 0 71.1-17 93.6-45.7L363 204.5c-0.5 0.6-1 1.2-1.5 1.9c-0.6 0.7-1.1 1.4-1.7 2.1 C359 209.5 358.2 210.4 357.3 211.4z" class="style1"/><path d="M176.6 132.9c0.1-0.8 0.1-1.6 0.2-2.4c0.1-0.9 0.2-1.8 0.4-2.8c0.1-0.8 0.2-1.6 0.3-2.3 c0.1-0.9 0.3-1.8 0.5-2.7c0.1-0.8 0.3-1.5 0.4-2.3c0.2-0.9 0.4-1.8 0.6-2.7c0.2-0.7 0.3-1.5 0.5-2.2c0.2-0.9 0.5-1.8 0.8-2.7 c0.2-0.7 0.4-1.4 0.6-2.1c0.3-0.9 0.6-1.8 0.9-2.7c0.2-0.7 0.5-1.4 0.7-2c0.3-0.9 0.7-1.8 1.1-2.7c0.3-0.6 0.5-1.3 0.8-1.9 c0.4-1 0.9-1.9 1.3-2.9c0.2-0.5 0.5-1.1 0.7-1.6c0.7-1.5 1.5-2.9 2.2-4.4c0.1-0.2 0.3-0.5 0.4-0.7c0.7-1.2 1.3-2.4 2-3.5 c0.3-0.5 0.7-1.1 1-1.6c0.5-0.8 1.1-1.7 1.6-2.5c0.4-0.6 0.8-1.2 1.2-1.7c0.5-0.8 1.1-1.5 1.6-2.3c0.4-0.6 0.9-1.2 1.4-1.7 c0.5-0.7 1.1-1.4 1.7-2.1c0.5-0.6 1-1.1 1.5-1.7c0.6-0.7 1.1-1.3 1.7-2c0.5-0.6 1-1.1 1.6-1.7c0.6-0.6 1.2-1.3 1.8-1.9 c0.5-0.5 1.1-1.1 1.6-1.6c0.6-0.6 1.2-1.2 1.9-1.8c0.6-0.5 1.2-1 1.7-1.5c0.6-0.6 1.3-1.1 1.9-1.7c0.6-0.5 1.2-1 1.8-1.5 c0.7-0.5 1.3-1.1 2-1.6c0.6-0.5 1.2-0.9 1.9-1.4c0.7-0.5 1.4-1 2.1-1.5c0.6-0.4 1.3-0.9 1.9-1.3c0.7-0.5 1.4-0.9 2.2-1.4 c0.7-0.4 1.3-0.8 2-1.2c0.7-0.4 1.5-0.9 2.2-1.3c0.7-0.4 1.4-0.8 2-1.1c0.8-0.4 1.5-0.8 2.3-1.2c0.7-0.3 1.4-0.7 2.1-1 c0.8-0.4 1.6-0.7 2.4-1.1c0.7-0.3 1.4-0.6 2.1-0.9c0.8-0.3 1.6-0.7 2.5-1c0.7-0.3 1.4-0.6 2.2-0.8c0.8-0.3 1.7-0.6 2.5-0.9 c0.7-0.2 1.5-0.5 2.2-0.7c0.9-0.3 1.7-0.5 2.6-0.7c0.7-0.2 1.5-0.4 2.2-0.6c0.9-0.2 1.8-0.4 2.7-0.6c0.7-0.2 1.5-0.3 2.2-0.5 c0.9-0.2 1.9-0.3 2.8-0.5c0.7-0.1 1.4-0.3 2.2-0.4c1-0.2 2-0.3 3-0.4c0.7-0.1 1.4-0.2 2.1-0.3c1.1-0.1 2.3-0.2 3.4-0.3 c0.6 0 1.1-0.1 1.7-0.1c1.7-0.1 3.5-0.1 5.2-0.1c2.2 0 4.3 0.1 6.4 0.2c0.7 0 1.4 0.1 2.1 0.2c1.4 0.1 2.8 0.2 4.3 0.4 c0.8 0.1 1.7 0.2 2.5 0.4c1.3 0.2 2.5 0.4 3.8 0.6c0.9 0.2 1.7 0.4 2.6 0.5c1.2 0.3 2.4 0.5 3.6 0.8c0.9 0.2 1.7 0.5 2.6 0.7 c1.2 0.3 2.3 0.7 3.4 1c0.9 0.3 1.7 0.6 2.6 0.9c1.1 0.4 2.2 0.8 3.3 1.2c0.8 0.3 1.7 0.7 2.5 1c1.1 0.5 2.2 0.9 3.3 1.4 c0.8 0.4 1.6 0.7 2.4 1.1c1.1 0.5 2.2 1.1 3.3 1.7c0.8 0.4 1.5 0.8 2.3 1.2c1.1 0.6 2.2 1.3 3.3 2c0.7 0.4 1.4 0.8 2 1.2 c1.2 0.8 2.4 1.6 3.6 2.5c0.5 0.4 1 0.7 1.5 1c1.7 1.2 3.3 2.5 4.9 3.9c0.3 0.2 0.6 0.5 0.9 0.8c1.3 1.1 2.6 2.2 3.8 3.4 c0.5 0.5 1.1 1.1 1.6 1.6c1 1 1.9 1.9 2.9 2.9c0.6 0.6 1.1 1.3 1.7 1.9c0.8 0.9 1.7 1.9 2.5 2.9c0.6 0.7 1.1 1.4 1.7 2.1 c0.5 0.6 1 1.2 1.5 1.9l10.7-10.7c-22.5-28.7-57-45.7-93.6-45.7c-63.1 0-114.8 49.4-118.6 111.5h15 C176.5 134 176.5 133.4 176.6 132.9z" class="style1"/><path d="M360.6 181.3l-19.4-19.4c-1.7 2.8-9.9 15.5-22.9 25.8c-5.1 4.3-10.8 7.6-17 10c0 0-0.1 0-0.1 0 c-0.2 0.1-0.4 0.2-0.6 0.2c-5 1.9-10.4 3.2-16.2 3.4c-1.4 0.1-2.9 0.2-4.3 0.2c-32.8 0-59.5-26.7-59.5-59.5 c0-32.8 26.7-59.5 59.5-59.5c1 0 1.9 0 2.9 0.1c7.1 0.1 13.6 1.7 19.6 4.3c0 0 0 0 0 0c0 0 0.1 0 0.1 0.1 c5.4 2.2 10.4 5.2 14.8 8.8c13.5 10.4 22 23.6 23.7 26.4l0 0l19.4-19.4v0L393 70.3l-3.6-5.1c-25-35.6-65.9-56.9-109.4-56.9 c-71.2 0-129.6 56-133.4 126.2h-0.2v14.7h0.2c3.8 70.3 62.2 126.2 133.4 126.2c43.4 0 84.3-21.3 109.4-56.9l3.6-5.1L360.6 181.3 L360.6 181.3z M280.1 216.2c25.2 0 48-12.4 61.7-33l10.7 10.7c-1.1 1.5-2.2 3-3.4 4.4c-0.4 0.5-0.8 0.9-1.2 1.4 c-0.8 0.9-1.6 1.9-2.4 2.8c-0.5 0.5-1 1-1.5 1.5c-0.8 0.8-1.5 1.6-2.3 2.4c-0.5 0.5-1.1 1-1.7 1.5c-0.8 0.7-1.6 1.4-2.4 2.1 c-0.6 0.5-1.2 1-1.8 1.5c-0.8 0.6-1.6 1.3-2.4 1.9c-0.6 0.5-1.3 0.9-1.9 1.4c-0.8 0.6-1.7 1.2-2.5 1.7c-0.7 0.4-1.3 0.9-2 1.3 c-0.9 0.5-1.7 1.1-2.6 1.6c-0.7 0.4-1.4 0.8-2.1 1.2c-0.9 0.5-1.8 0.9-2.7 1.4c-0.7 0.4-1.4 0.7-2.2 1c-0.9 0.4-1.8 0.8-2.8 1.2 c-0.7 0.3-1.5 0.6-2.2 0.9c-0.9 0.4-1.9 0.7-2.9 1c-0.8 0.3-1.5 0.5-2.3 0.8c-1 0.3-2 0.6-3 0.9c-0.8 0.2-1.5 0.4-2.3 0.6 c-1 0.3-2.1 0.5-3.1 0.7c-0.8 0.2-1.5 0.3-2.3 0.5c-1.1 0.2-2.2 0.4-3.3 0.5c-0.7 0.1-1.4 0.2-2.2 0.3c-1.2 0.2-2.5 0.3-3.7 0.4 c-0.6 0-1.2 0.1-1.8 0.2c-1.9 0.1-3.7 0.2-5.6 0.2c-1.5 0-3 0-4.5-0.1c-0.5 0-1-0.1-1.5-0.1c-1-0.1-2-0.1-2.9-0.2 c-0.6-0.1-1.2-0.1-1.7-0.2c-0.9-0.1-1.7-0.2-2.6-0.3c-0.6-0.1-1.2-0.2-1.8-0.3c-0.8-0.1-1.7-0.3-2.5-0.4c-0.6-0.1-1.2-0.3-1.8-0.4 c-0.8-0.2-1.6-0.4-2.4-0.5c-0.6-0.2-1.2-0.3-1.8-0.5c-0.8-0.2-1.5-0.4-2.3-0.7c-0.6-0.2-1.2-0.4-1.8-0.6c-0.7-0.2-1.5-0.5-2.2-0.8 c-0.6-0.2-1.2-0.4-1.8-0.7c-0.7-0.3-1.5-0.6-2.2-0.9c-0.6-0.2-1.2-0.5-1.8-0.8c-0.7-0.3-1.4-0.6-2.1-1c-0.6-0.3-1.1-0.5-1.7-0.8 c-0.7-0.3-1.4-0.7-2.1-1.1c-0.6-0.3-1.1-0.6-1.7-0.9c-0.7-0.4-1.4-0.8-2-1.2c-0.5-0.3-1.1-0.6-1.6-1c-0.7-0.4-1.3-0.8-2-1.3 c-0.5-0.3-1-0.7-1.5-1c-0.7-0.4-1.3-0.9-1.9-1.4c-0.5-0.4-1-0.7-1.5-1.1c-0.6-0.5-1.3-1-1.9-1.5c-0.5-0.4-0.9-0.7-1.4-1.1 c-0.6-0.5-1.3-1.1-1.9-1.6c-0.4-0.4-0.9-0.7-1.3-1.1c-0.6-0.6-1.3-1.2-1.9-1.8c-0.4-0.4-0.8-0.7-1.1-1.1c-0.7-0.7-1.3-1.3-1.9-2 c-0.3-0.3-0.6-0.7-1-1c-0.7-0.8-1.5-1.7-2.2-2.5c-0.2-0.2-0.4-0.4-0.6-0.7c-1.8-2.2-3.5-4.4-5-6.7c-0.2-0.3-0.4-0.6-0.6-1 c-0.6-0.9-1.1-1.7-1.7-2.6c-0.3-0.4-0.5-0.9-0.7-1.3c-0.5-0.8-0.9-1.6-1.4-2.4c-0.3-0.5-0.5-1-0.8-1.5c-0.4-0.8-0.8-1.5-1.2-2.3 c-0.3-0.5-0.5-1.1-0.7-1.6c-0.3-0.7-0.7-1.5-1-2.3c-0.2-0.6-0.5-1.1-0.7-1.7c-0.3-0.7-0.6-1.5-0.9-2.3c-0.2-0.6-0.4-1.2-0.6-1.8 c-0.3-0.8-0.5-1.5-0.8-2.3c-0.2-0.6-0.4-1.2-0.6-1.8c-0.2-0.8-0.4-1.5-0.7-2.3c-0.2-0.6-0.3-1.2-0.5-1.9c-0.2-0.8-0.4-1.5-0.5-2.3 c-0.1-0.6-0.3-1.3-0.4-1.9c-0.2-0.8-0.3-1.6-0.4-2.3c-0.1-0.7-0.2-1.3-0.3-2c-0.1-0.8-0.2-1.6-0.3-2.4c-0.1-0.7-0.2-1.3-0.2-2 c0-0.3 0-0.6-0.1-0.9h14.9C209.9 186.8 241.6 216.2 280.1 216.2z M341.7 100.7c-13.7-20.6-36.5-33-61.7-33 c-38.5 0-70.2 29.4-73.9 66.9h-14.9c0-0.3 0-0.6 0.1-0.9c0.1-0.7 0.1-1.3 0.2-2c0.1-0.8 0.2-1.6 0.3-2.4c0.1-0.7 0.2-1.3 0.3-2 c0.1-0.8 0.3-1.6 0.4-2.3c0.1-0.6 0.3-1.3 0.4-1.9c0.2-0.8 0.3-1.5 0.5-2.3c0.2-0.6 0.3-1.3 0.5-1.9c0.2-0.8 0.4-1.5 0.7-2.3 c0.2-0.6 0.4-1.2 0.6-1.8c0.2-0.8 0.5-1.5 0.8-2.3c0.2-0.6 0.4-1.2 0.6-1.8c0.3-0.8 0.6-1.5 0.9-2.3c0.2-0.6 0.5-1.1 0.7-1.7 c0.3-0.8 0.7-1.5 1-2.3c0.2-0.5 0.5-1.1 0.7-1.6c0.4-0.8 0.8-1.5 1.2-2.3c0.3-0.5 0.5-1 0.8-1.5c0.4-0.8 0.9-1.6 1.4-2.3 c0.3-0.4 0.5-0.9 0.8-1.3c0.5-0.9 1.1-1.7 1.6-2.6c0.2-0.3 0.4-0.7 0.6-1c1.6-2.3 3.3-4.6 5-6.7c0.2-0.2 0.4-0.4 0.6-0.7 c0.7-0.8 1.4-1.7 2.2-2.5c0.3-0.3 0.6-0.7 1-1c0.6-0.7 1.3-1.4 1.9-2c0.4-0.4 0.8-0.7 1.1-1.1c0.6-0.6 1.2-1.2 1.9-1.8 c0.4-0.4 0.8-0.8 1.3-1.1c0.6-0.5 1.2-1.1 1.9-1.6c0.4-0.4 0.9-0.7 1.4-1.1c0.6-0.5 1.3-1 1.9-1.5c0.5-0.4 1-0.7 1.5-1.1 c0.6-0.5 1.3-0.9 1.9-1.4c0.5-0.3 1-0.7 1.5-1c0.7-0.4 1.3-0.9 2-1.3c0.5-0.3 1.1-0.6 1.6-1c0.7-0.4 1.3-0.8 2-1.2 c0.5-0.3 1.1-0.6 1.7-0.9c0.7-0.4 1.4-0.7 2.1-1.1c0.6-0.3 1.1-0.6 1.7-0.8c0.7-0.3 1.4-0.7 2.1-1c0.6-0.3 1.2-0.5 1.8-0.7 c0.7-0.3 1.4-0.6 2.2-0.9c0.6-0.2 1.2-0.5 1.8-0.7c0.7-0.3 1.5-0.5 2.2-0.8c0.6-0.2 1.2-0.4 1.8-0.6c0.8-0.2 1.5-0.4 2.3-0.7 c0.6-0.2 1.2-0.3 1.8-0.5c0.8-0.2 1.6-0.4 2.4-0.5c0.6-0.1 1.2-0.3 1.8-0.4c0.8-0.2 1.6-0.3 2.5-0.4c0.6-0.1 1.2-0.2 1.8-0.3 c0.9-0.1 1.7-0.2 2.6-0.3c0.6-0.1 1.2-0.2 1.7-0.2c1-0.1 2-0.2 2.9-0.2c0.5 0 1-0.1 1.5-0.1c1.5-0.1 3-0.1 4.5-0.1 c1.9 0 3.7 0.1 5.6 0.2c0.6 0 1.2 0.1 1.8 0.2c1.2 0.1 2.5 0.2 3.7 0.4c0.7 0.1 1.4 0.2 2.2 0.3c1.1 0.2 2.2 0.3 3.3 0.5 c0.8 0.1 1.5 0.3 2.3 0.5c1 0.2 2.1 0.4 3.1 0.7c0.8 0.2 1.5 0.4 2.3 0.6c1 0.3 2 0.6 3 0.9c0.8 0.2 1.5 0.5 2.3 0.8 c1 0.3 1.9 0.7 2.9 1c0.7 0.3 1.5 0.6 2.2 0.9c0.9 0.4 1.9 0.8 2.8 1.2c0.7 0.3 1.5 0.7 2.2 1c0.9 0.4 1.8 0.9 2.7 1.4 c0.7 0.4 1.4 0.8 2.1 1.2c0.9 0.5 1.7 1 2.6 1.6c0.7 0.4 1.4 0.8 2 1.3c0.9 0.6 1.7 1.1 2.5 1.7c0.6 0.5 1.3 0.9 1.9 1.4 c0.8 0.6 1.6 1.3 2.4 1.9c0.6 0.5 1.2 1 1.8 1.5c0.8 0.7 1.6 1.4 2.4 2.1c0.6 0.5 1.1 1 1.7 1.5c0.8 0.8 1.6 1.6 2.3 2.4 c0.5 0.5 1 1 1.5 1.5c0.8 0.9 1.6 1.8 2.4 2.8c0.4 0.5 0.8 0.9 1.2 1.4c1.2 1.4 2.3 2.9 3.4 4.4L341.7 100.7z M280.1 23.1 c36.6 0 71.1 17 93.6 45.7L363 79.4c-0.5-0.6-1-1.2-1.5-1.9c-0.6-0.7-1.1-1.4-1.7-2.1c-0.8-1-1.7-1.9-2.5-2.9 c-0.6-0.6-1.1-1.3-1.7-1.9c-0.9-1-1.9-1.9-2.9-2.9c-0.5-0.5-1-1.1-1.6-1.6c-1.2-1.2-2.5-2.3-3.8-3.4c-0.3-0.2-0.6-0.5-0.9-0.8 c-1.6-1.3-3.2-2.6-4.9-3.9c-0.5-0.4-1-0.7-1.5-1c-1.2-0.9-2.4-1.7-3.6-2.5c-0.7-0.4-1.4-0.8-2-1.2c-1.1-0.7-2.2-1.3-3.3-2 c-0.7-0.4-1.5-0.8-2.3-1.2c-1.1-0.6-2.2-1.1-3.3-1.7c-0.8-0.4-1.6-0.8-2.4-1.1c-1.1-0.5-2.2-1-3.3-1.4c-0.8-0.3-1.7-0.7-2.5-1 c-1.1-0.4-2.2-0.8-3.3-1.2c-0.9-0.3-1.7-0.6-2.6-0.9c-1.1-0.4-2.3-0.7-3.4-1c-0.9-0.2-1.7-0.5-2.6-0.7c-1.2-0.3-2.4-0.6-3.6-0.8 c-0.9-0.2-1.7-0.4-2.6-0.5c-1.3-0.2-2.5-0.4-3.8-0.6c-0.8-0.1-1.6-0.3-2.5-0.4c-1.4-0.2-2.8-0.3-4.3-0.4c-0.7-0.1-1.4-0.1-2.1-0.2 c-2.1-0.1-4.3-0.2-6.4-0.2c-1.8 0-3.5 0-5.2 0.1c-0.6 0-1.2 0.1-1.7 0.1c-1.1 0.1-2.3 0.1-3.4 0.3c-0.7 0.1-1.4 0.2-2.1 0.3 c-1 0.1-2 0.2-3 0.4c-0.7 0.1-1.4 0.2-2.2 0.4c-0.9 0.2-1.9 0.3-2.8 0.5c-0.7 0.1-1.5 0.3-2.2 0.5c-0.9 0.2-1.8 0.4-2.7 0.6 c-0.7 0.2-1.5 0.4-2.2 0.6c-0.9 0.2-1.8 0.5-2.6 0.7c-0.7 0.2-1.5 0.5-2.2 0.7c-0.8 0.3-1.7 0.6-2.5 0.9c-0.7 0.3-1.5 0.5-2.2 0.8 c-0.8 0.3-1.6 0.6-2.5 1c-0.7 0.3-1.4 0.6-2.1 0.9c-0.8 0.4-1.6 0.7-2.4 1.1c-0.7 0.3-1.4 0.7-2.1 1c-0.8 0.4-1.5 0.8-2.3 1.2 c-0.7 0.4-1.4 0.7-2 1.1c-0.8 0.4-1.5 0.9-2.2 1.3c-0.7 0.4-1.3 0.8-2 1.2c-0.7 0.5-1.4 0.9-2.2 1.4c-0.7 0.4-1.3 0.9-1.9 1.3 c-0.7 0.5-1.4 1-2.1 1.5c-0.6 0.5-1.3 0.9-1.9 1.4c-0.7 0.5-1.3 1-2 1.6c-0.6 0.5-1.2 1-1.8 1.5c-0.7 0.5-1.3 1.1-1.9 1.7 c-0.6 0.5-1.2 1-1.7 1.5c-0.6 0.6-1.2 1.2-1.9 1.8c-0.6 0.5-1.1 1.1-1.6 1.6c-0.6 0.6-1.2 1.2-1.8 1.9c-0.5 0.6-1 1.1-1.6 1.7 c-0.6 0.7-1.2 1.3-1.7 2c-0.5 0.6-1 1.1-1.5 1.7c-0.6 0.7-1.1 1.4-1.7 2.1c-0.5 0.6-0.9 1.2-1.4 1.7c-0.6 0.7-1.1 1.5-1.6 2.3 c-0.4 0.6-0.8 1.2-1.2 1.7c-0.6 0.8-1.1 1.7-1.6 2.5c-0.3 0.5-0.7 1.1-1 1.6c-0.7 1.2-1.4 2.3-2 3.5c-0.1 0.2-0.3 0.5-0.4 0.7 c-0.8 1.4-1.5 2.9-2.2 4.4c-0.3 0.5-0.5 1.1-0.7 1.6c-0.4 1-0.9 1.9-1.3 2.9c-0.3 0.6-0.5 1.3-0.8 1.9c-0.4 0.9-0.7 1.8-1.1 2.7 c-0.2 0.7-0.5 1.4-0.7 2c-0.3 0.9-0.6 1.8-0.9 2.7c-0.2 0.7-0.4 1.4-0.6 2.1c-0.3 0.9-0.5 1.8-0.8 2.7c-0.2 0.7-0.4 1.5-0.5 2.2 c-0.2 0.9-0.4 1.8-0.6 2.7c-0.2 0.8-0.3 1.5-0.4 2.3c-0.2 0.9-0.3 1.8-0.5 2.7c-0.1 0.8-0.2 1.5-0.3 2.3c-0.1 0.9-0.2 1.8-0.4 2.8 c-0.1 0.8-0.2 1.6-0.2 2.4c-0.1 0.6-0.1 1.1-0.2 1.7h-15C165.2 72.5 217 23.1 280.1 23.1z M363 204.5l10.7 10.7 c-22.5 28.7-57 45.7-93.6 45.7c-63.1 0-114.8-49.4-118.6-111.5h15c0 0.6 0.1 1.2 0.2 1.7c0.1 0.8 0.1 1.6 0.2 2.4 c0.1 0.9 0.2 1.8 0.4 2.8c0.1 0.8 0.2 1.6 0.3 2.3c0.1 0.9 0.3 1.8 0.5 2.7c0.1 0.8 0.3 1.5 0.4 2.3c0.2 0.9 0.4 1.8 0.6 2.7 c0.2 0.7 0.3 1.5 0.5 2.2c0.2 0.9 0.5 1.8 0.8 2.7c0.2 0.7 0.4 1.4 0.6 2.1c0.3 0.9 0.6 1.8 0.9 2.7c0.2 0.7 0.5 1.4 0.7 2 c0.3 0.9 0.7 1.8 1.1 2.8c0.2 0.6 0.5 1.2 0.7 1.9c0.4 1 0.9 2 1.4 3c0.2 0.5 0.5 1 0.7 1.5c0.7 1.5 1.5 2.9 2.2 4.4 c0.1 0.2 0.2 0.4 0.3 0.6c0.7 1.2 1.4 2.5 2.1 3.7c0.3 0.5 0.6 1 1 1.5c0.6 0.9 1.1 1.8 1.7 2.6c0.4 0.6 0.8 1.1 1.2 1.7 c0.5 0.8 1.1 1.6 1.6 2.3c0.4 0.6 0.9 1.1 1.3 1.7c0.6 0.7 1.1 1.4 1.7 2.1c0.5 0.6 1 1.1 1.4 1.7c0.6 0.7 1.2 1.4 1.8 2 c0.5 0.6 1 1.1 1.5 1.6c0.6 0.6 1.2 1.3 1.8 1.9c0.5 0.5 1.1 1.1 1.6 1.6c0.6 0.6 1.3 1.2 1.9 1.8c0.6 0.5 1.1 1 1.7 1.5 c0.6 0.6 1.3 1.1 2 1.7c0.6 0.5 1.2 1 1.8 1.5c0.7 0.5 1.3 1.1 2 1.6c0.6 0.5 1.2 0.9 1.8 1.4c0.7 0.5 1.4 1 2.1 1.5 c0.6 0.4 1.3 0.9 1.9 1.3c0.7 0.5 1.5 0.9 2.2 1.4c0.7 0.4 1.3 0.8 2 1.2c0.7 0.4 1.5 0.9 2.3 1.3c0.7 0.4 1.3 0.7 2 1.1 c0.8 0.4 1.5 0.8 2.3 1.2c0.7 0.3 1.4 0.7 2.1 1c0.8 0.4 1.6 0.7 2.4 1.1c0.7 0.3 1.4 0.6 2.1 0.9c0.8 0.3 1.6 0.7 2.5 1 c0.7 0.3 1.4 0.6 2.2 0.8c0.8 0.3 1.7 0.6 2.5 0.9c0.7 0.2 1.5 0.5 2.2 0.7c0.9 0.3 1.8 0.5 2.6 0.8c0.7 0.2 1.5 0.4 2.2 0.6 c0.9 0.2 1.8 0.4 2.7 0.6c0.7 0.2 1.5 0.3 2.2 0.5c0.9 0.2 1.9 0.3 2.9 0.5c0.7 0.1 1.4 0.3 2.2 0.4c1 0.2 2 0.3 3 0.4 c0.7 0.1 1.4 0.2 2 0.2c1.1 0.1 2.3 0.2 3.4 0.3c0.6 0 1.1 0.1 1.7 0.1c1.7 0.1 3.5 0.1 5.2 0.1c2.2 0 4.3-0.1 6.4-0.2 c0.7 0 1.4-0.1 2.1-0.2c1.4-0.1 2.8-0.2 4.3-0.4c0.8-0.1 1.7-0.2 2.5-0.4c1.3-0.2 2.5-0.4 3.8-0.6c0.9-0.2 1.7-0.4 2.6-0.5 c1.2-0.3 2.4-0.5 3.6-0.8c0.9-0.2 1.7-0.5 2.6-0.7c1.2-0.3 2.3-0.7 3.4-1c0.9-0.3 1.7-0.6 2.6-0.9c1.1-0.4 2.2-0.8 3.3-1.2 c0.8-0.3 1.7-0.7 2.5-1c1.1-0.5 2.2-0.9 3.3-1.4c0.8-0.4 1.6-0.7 2.4-1.1c1.1-0.5 2.2-1.1 3.3-1.7c0.8-0.4 1.5-0.8 2.3-1.2 c1.1-0.6 2.2-1.3 3.3-2c0.7-0.4 1.4-0.8 2-1.2c1.2-0.8 2.4-1.6 3.6-2.5c0.5-0.4 1-0.7 1.5-1c1.7-1.2 3.3-2.5 4.9-3.9 c0.3-0.2 0.6-0.5 0.9-0.8c1.3-1.1 2.6-2.2 3.8-3.4c0.5-0.5 1.1-1.1 1.6-1.6c1-1 1.9-1.9 2.9-2.9c0.6-0.6 1.1-1.3 1.7-1.9 c0.8-0.9 1.7-1.9 2.5-2.9c0.6-0.7 1.1-1.4 1.7-2.1C362 205.8 362.5 205.1 363 204.5z" class="style0"/><path d="M284.4 201.3c5.7-0.3 11.1-1.5 16.2-3.4C295.4 199.7 290 200.9 284.4 201.3z" class="style2"/><path d="M301.2 197.6 C301.2 197.6 301.2 197.6 301.2 197.6" class="style3"/><path d="M302.6 86.9 c0 0-0.1 0-0.1-0.1" class="style3"/></g></svg>