<?xml version="1.0" encoding="utf-8"?>
<!-- Generator: Adobe Illustrator 19.0.0, SVG Export Plug-In . SVG Version: 6.00 Build 0)  -->
<!DOCTYPE svg PUBLIC "-//W3C//DTD SVG 1.1//EN" "http://www.w3.org/Graphics/SVG/1.1/DTD/svg11.dtd">
<svg version="1.1" id="Layer_1" xmlns="http://www.w3.org/2000/svg" xmlns:xlink="http://www.w3.org/1999/xlink" x="0px" y="0px"
	 viewBox="-281 255.1 290.4 283.9" style="enable-background:new -281 255.1 290.4 283.9;" xml:space="preserve">
<style type="text/css">
	.st0{fill:none;}
	.st1{fill:#ffffff;}
	.st2{fill:#FFFFFF;}
</style>
<g>
	<path class="st0" d="M-56.1,339.3c-0.8-0.9-1.6-1.9-2.4-2.8c-0.5-0.5-1-1-1.5-1.5c-0.8-0.8-1.5-1.6-2.3-2.4c-0.5-0.5-1.1-1-1.7-1.5
		c-0.8-0.7-1.6-1.4-2.4-2.1c-0.6-0.5-1.2-1-1.8-1.5c-0.8-0.6-1.6-1.3-2.4-1.9c-0.6-0.5-1.3-0.9-1.9-1.4c-0.8-0.6-1.7-1.2-2.5-1.7
		c-0.7-0.4-1.3-0.9-2-1.3c-0.9-0.5-1.7-1.1-2.6-1.6c-0.7-0.4-1.4-0.8-2.1-1.2c-0.9-0.5-1.8-0.9-2.7-1.4c-0.7-0.4-1.4-0.7-2.2-1
		c-0.9-0.4-1.8-0.8-2.8-1.2c-0.7-0.3-1.5-0.6-2.2-0.9c-0.9-0.4-1.9-0.7-2.9-1c-0.8-0.3-1.5-0.5-2.3-0.8c-1-0.3-2-0.6-3-0.9
		c-0.8-0.2-1.5-0.4-2.3-0.6c-1-0.3-2.1-0.5-3.1-0.7c-0.8-0.2-1.5-0.3-2.3-0.5c-1.1-0.2-2.2-0.4-3.3-0.5c-0.7-0.1-1.4-0.2-2.2-0.3
		c-1.2-0.2-2.5-0.3-3.7-0.4c-0.6-0.1-1.2-0.1-1.8-0.2c-1.9-0.1-3.7-0.2-5.6-0.2c-1.5,0-3,0-4.5,0.1c-0.5,0-1,0.1-1.5,0.1
		c-1,0.1-2,0.1-2.9,0.2c-0.6,0.1-1.2,0.1-1.7,0.2c-0.9,0.1-1.7,0.2-2.6,0.3c-0.6,0.1-1.2,0.2-1.8,0.3c-0.8,0.1-1.7,0.3-2.5,0.4
		c-0.6,0.1-1.2,0.3-1.8,0.4c-0.8,0.2-1.6,0.4-2.4,0.5c-0.6,0.2-1.2,0.3-1.8,0.5c-0.8,0.2-1.5,0.4-2.3,0.7c-0.6,0.2-1.2,0.4-1.8,0.6
		c-0.7,0.2-1.5,0.5-2.2,0.8c-0.6,0.2-1.2,0.4-1.8,0.7c-0.7,0.3-1.5,0.6-2.2,0.9c-0.6,0.2-1.2,0.5-1.8,0.7c-0.7,0.3-1.4,0.6-2.1,1
		c-0.6,0.3-1.1,0.5-1.7,0.8c-0.7,0.3-1.4,0.7-2.1,1.1c-0.6,0.3-1.1,0.6-1.7,0.9c-0.7,0.4-1.4,0.8-2,1.2c-0.5,0.3-1.1,0.6-1.6,1
		c-0.7,0.4-1.3,0.8-2,1.3c-0.5,0.3-1,0.7-1.5,1c-0.7,0.4-1.3,0.9-1.9,1.4c-0.5,0.4-1,0.7-1.5,1.1c-0.6,0.5-1.3,1-1.9,1.5
		c-0.5,0.4-0.9,0.7-1.4,1.1c-0.6,0.5-1.3,1.1-1.9,1.6c-0.4,0.4-0.9,0.7-1.3,1.1c-0.6,0.6-1.3,1.2-1.9,1.8c-0.4,0.4-0.8,0.7-1.1,1.1
		c-0.7,0.7-1.3,1.3-1.9,2c-0.3,0.3-0.6,0.7-1,1c-0.7,0.8-1.5,1.7-2.2,2.5c-0.2,0.2-0.4,0.4-0.6,0.7c-1.8,2.2-3.5,4.4-5,6.7
		c-0.2,0.3-0.4,0.7-0.6,1c-0.6,0.8-1.1,1.7-1.6,2.6c-0.3,0.4-0.5,0.9-0.8,1.3c-0.5,0.8-0.9,1.6-1.4,2.3c-0.3,0.5-0.5,1-0.8,1.5
		c-0.4,0.8-0.8,1.5-1.2,2.3c-0.3,0.5-0.5,1.1-0.7,1.6c-0.3,0.7-0.7,1.5-1,2.3c-0.2,0.6-0.5,1.1-0.7,1.7c-0.3,0.7-0.6,1.5-0.9,2.3
		c-0.2,0.6-0.4,1.2-0.6,1.8c-0.3,0.8-0.5,1.5-0.8,2.3c-0.2,0.6-0.4,1.2-0.6,1.8c-0.2,0.8-0.4,1.5-0.7,2.3c-0.2,0.6-0.3,1.2-0.5,1.9
		c-0.2,0.8-0.4,1.5-0.5,2.3c-0.1,0.6-0.3,1.3-0.4,1.9c-0.2,0.8-0.3,1.6-0.4,2.3c-0.1,0.7-0.2,1.3-0.3,2c-0.1,0.8-0.2,1.6-0.3,2.4
		c-0.1,0.7-0.2,1.3-0.2,2c0,0.3,0,0.6-0.1,0.9h14.9c3.7-37.5,35.4-66.9,73.9-66.9c25.2,0,48,12.4,61.7,33l11.1-10.9
		c-1.1-1.5-2.2-3-3.4-4.4C-55.3,340.2-55.7,339.8-56.1,339.3z"/>
	<path class="st0" d="M-212.8,404.4c0,0.3,0,0.6,0.1,0.9c0.1,0.7,0.1,1.3,0.2,2c0.1,0.8,0.2,1.6,0.3,2.4c0.1,0.7,0.2,1.3,0.3,2
		c0.1,0.8,0.3,1.6,0.4,2.3c0.1,0.6,0.3,1.3,0.4,1.9c0.2,0.8,0.3,1.5,0.5,2.3c0.2,0.6,0.3,1.2,0.5,1.9c0.2,0.8,0.4,1.5,0.7,2.3
		c0.2,0.6,0.4,1.2,0.6,1.8c0.2,0.8,0.5,1.5,0.8,2.3c0.2,0.6,0.4,1.2,0.6,1.8c0.3,0.8,0.6,1.5,0.9,2.3c0.2,0.6,0.5,1.1,0.7,1.7
		c0.3,0.8,0.7,1.5,1,2.3c0.2,0.5,0.5,1.1,0.7,1.6c0.4,0.8,0.8,1.5,1.2,2.3c0.3,0.5,0.5,1,0.8,1.5c0.4,0.8,0.9,1.6,1.4,2.4
		c0.3,0.4,0.5,0.9,0.7,1.3c0.5,0.9,1.1,1.7,1.7,2.6c0.2,0.3,0.4,0.6,0.6,1c1.6,2.3,3.3,4.6,5,6.7c0.2,0.2,0.4,0.4,0.6,0.7
		c0.7,0.8,1.4,1.7,2.2,2.5c0.3,0.3,0.6,0.7,1,1c0.6,0.7,1.3,1.4,1.9,2c0.4,0.4,0.8,0.7,1.1,1.1c0.6,0.6,1.2,1.2,1.9,1.8
		c0.4,0.4,0.8,0.7,1.3,1.1c0.6,0.5,1.2,1.1,1.9,1.6c0.5,0.4,0.9,0.7,1.4,1.1c0.6,0.5,1.3,1,1.9,1.5c0.5,0.4,1,0.7,1.5,1.1
		c0.6,0.5,1.3,0.9,1.9,1.4c0.5,0.3,1,0.7,1.5,1c0.7,0.4,1.3,0.9,2,1.3c0.5,0.3,1.1,0.6,1.6,1c0.7,0.4,1.3,0.8,2,1.2
		c0.5,0.3,1.1,0.6,1.7,0.9c0.7,0.4,1.4,0.7,2.1,1.1c0.6,0.3,1.1,0.6,1.7,0.8c0.7,0.3,1.4,0.6,2.1,1c0.6,0.3,1.2,0.5,1.8,0.8
		c0.7,0.3,1.4,0.6,2.2,0.9c0.6,0.2,1.2,0.5,1.8,0.7c0.7,0.3,1.5,0.5,2.2,0.8c0.6,0.2,1.2,0.4,1.8,0.6c0.8,0.2,1.5,0.4,2.3,0.7
		c0.6,0.2,1.2,0.3,1.8,0.5c0.8,0.2,1.6,0.4,2.4,0.5c0.6,0.1,1.2,0.3,1.8,0.4c0.8,0.2,1.6,0.3,2.5,0.4c0.6,0.1,1.2,0.2,1.8,0.3
		c0.9,0.1,1.7,0.2,2.6,0.3c0.6,0.1,1.2,0.2,1.7,0.2c1,0.1,2,0.2,2.9,0.2c0.5,0,1,0.1,1.5,0.1c1.5,0.1,3,0.1,4.5,0.1
		c1.9,0,3.7-0.1,5.6-0.2c0.6,0,1.2-0.1,1.8-0.2c1.2-0.1,2.5-0.2,3.7-0.4c0.7-0.1,1.4-0.2,2.2-0.3c1.1-0.2,2.2-0.3,3.3-0.5
		c0.8-0.1,1.5-0.3,2.3-0.5c1-0.2,2.1-0.4,3.1-0.7c0.8-0.2,1.5-0.4,2.3-0.6c1-0.3,2-0.6,3-0.9c0.8-0.2,1.5-0.5,2.3-0.8
		c1-0.3,1.9-0.7,2.9-1c0.7-0.3,1.5-0.6,2.2-0.9c0.9-0.4,1.9-0.8,2.8-1.2c0.7-0.3,1.5-0.7,2.2-1c0.9-0.4,1.8-0.9,2.7-1.4
		c0.7-0.4,1.4-0.8,2.1-1.2c0.9-0.5,1.7-1,2.6-1.6c0.7-0.4,1.4-0.8,2-1.3c0.9-0.6,1.7-1.1,2.5-1.7c0.6-0.5,1.3-0.9,1.9-1.4
		c0.8-0.6,1.6-1.3,2.4-1.9c0.6-0.5,1.2-1,1.8-1.5c0.8-0.7,1.6-1.4,2.4-2.1c0.6-0.5,1.1-1,1.7-1.5c0.8-0.8,1.6-1.6,2.3-2.4
		c0.5-0.5,1-1,1.5-1.5c0.8-0.9,1.6-1.8,2.4-2.8c0.4-0.5,0.8-0.9,1.2-1.4c1.2-1.4,2.3-2.9,3.4-4.4l-10.7-10.7
		c-13.7,20.6-36.5,33-61.7,33c-38.5,0-70.2-29.4-73.9-66.9h-15.3V404.4z"/>
	<path class="st0" d="M-46.7,466.5c-0.6,0.6-1.1,1.3-1.7,1.9c-0.9,1-1.9,1.9-2.9,2.9c-0.5,0.5-1,1.1-1.6,1.6
		c-1.2,1.2-2.5,2.3-3.8,3.4c-0.3,0.2-0.6,0.5-0.9,0.8c-1.6,1.3-3.2,2.6-4.9,3.9c-0.5,0.4-1,0.7-1.5,1c-1.2,0.9-2.4,1.7-3.6,2.5
		c-0.7,0.4-1.4,0.8-2,1.2c-1.1,0.7-2.2,1.3-3.3,2c-0.7,0.4-1.5,0.8-2.3,1.2c-1.1,0.6-2.2,1.1-3.3,1.7c-0.8,0.4-1.6,0.8-2.4,1.1
		c-1.1,0.5-2.2,1-3.3,1.4c-0.8,0.3-1.7,0.7-2.5,1c-1.1,0.4-2.2,0.8-3.3,1.2c-0.9,0.3-1.7,0.6-2.6,0.9c-1.1,0.4-2.3,0.7-3.4,1
		c-0.9,0.2-1.7,0.5-2.6,0.7c-1.2,0.3-2.4,0.6-3.6,0.8c-0.9,0.2-1.7,0.4-2.6,0.5c-1.3,0.2-2.5,0.4-3.8,0.6c-0.8,0.1-1.6,0.3-2.5,0.4
		c-1.4,0.2-2.8,0.3-4.3,0.4c-0.7,0.1-1.4,0.1-2.1,0.2c-2.1,0.1-4.3,0.2-6.4,0.2c-1.8,0-3.5,0-5.2-0.1c-0.6,0-1.2-0.1-1.7-0.1
		c-1.1-0.1-2.3-0.1-3.4-0.3c-0.7-0.1-1.4-0.2-2-0.2c-1-0.1-2-0.2-3-0.4c-0.7-0.1-1.4-0.2-2.2-0.4c-1-0.2-1.9-0.3-2.9-0.5
		c-0.7-0.1-1.5-0.3-2.2-0.5c-0.9-0.2-1.8-0.4-2.7-0.6c-0.7-0.2-1.5-0.4-2.2-0.6c-0.9-0.2-1.8-0.5-2.6-0.8c-0.7-0.2-1.5-0.5-2.2-0.7
		c-0.9-0.3-1.7-0.6-2.5-0.9c-0.7-0.3-1.4-0.5-2.2-0.8s-1.7-0.6-2.5-1c-0.7-0.3-1.4-0.6-2.1-0.9c-0.8-0.4-1.6-0.7-2.4-1.1
		c-0.7-0.3-1.4-0.7-2.1-1c-0.8-0.4-1.6-0.8-2.3-1.2c-0.7-0.4-1.4-0.7-2-1.1c-0.8-0.4-1.5-0.9-2.3-1.3c-0.7-0.4-1.3-0.8-2-1.2
		c-0.7-0.5-1.5-0.9-2.2-1.4c-0.6-0.4-1.3-0.8-1.9-1.3c-0.7-0.5-1.4-1-2.1-1.5c-0.6-0.5-1.2-0.9-1.8-1.4c-0.7-0.5-1.4-1.1-2-1.6
		s-1.2-1-1.8-1.5c-0.7-0.6-1.3-1.1-2-1.7c-0.6-0.5-1.1-1-1.7-1.5c-0.6-0.6-1.3-1.2-1.9-1.8c-0.5-0.5-1.1-1-1.6-1.6
		c-0.6-0.6-1.2-1.3-1.8-1.9c-0.5-0.5-1-1.1-1.5-1.6c-0.6-0.7-1.2-1.3-1.8-2c-0.5-0.6-1-1.1-1.4-1.7c-0.6-0.7-1.1-1.4-1.7-2.1
		c-0.4-0.6-0.9-1.1-1.3-1.7c-0.6-0.8-1.1-1.5-1.6-2.3c-0.4-0.6-0.8-1.1-1.2-1.7c-0.6-0.9-1.1-1.7-1.7-2.6c-0.3-0.5-0.7-1-1-1.5
		c-0.7-1.2-1.4-2.4-2.1-3.7c-0.1-0.2-0.2-0.4-0.3-0.6c-0.8-1.4-1.5-2.9-2.2-4.4c-0.2-0.5-0.5-1-0.7-1.5c-0.5-1-0.9-2-1.4-3
		c-0.3-0.6-0.5-1.2-0.7-1.9c-0.4-0.9-0.7-1.8-1.1-2.8c-0.2-0.7-0.5-1.3-0.7-2c-0.3-0.9-0.6-1.8-0.9-2.7c-0.2-0.7-0.4-1.4-0.6-2.1
		c-0.3-0.9-0.5-1.8-0.8-2.7c-0.2-0.7-0.4-1.5-0.5-2.2c-0.2-0.9-0.4-1.8-0.6-2.7c-0.2-0.8-0.3-1.5-0.4-2.3c-0.2-0.9-0.3-1.8-0.5-2.7
		c-0.1-0.8-0.2-1.5-0.3-2.3c-0.1-0.9-0.2-1.8-0.4-2.8c-0.1-0.8-0.2-1.6-0.2-2.4c-0.1-0.6-0.1-1.1-0.2-1.7h-15
		c3.8,62.1,55.6,111.5,118.6,111.5c36.6,0,71.1-17,93.6-45.7l-11-10.6c-0.5,0.6-1,1.2-1.5,1.9c-0.6,0.7-1.1,1.4-1.7,2.1
		C-45,464.6-45.8,465.5-46.7,466.5z"/>
	<path class="st0" d="M-227.4,388c0.1-0.8,0.1-1.6,0.2-2.4c0.1-0.9,0.2-1.8,0.4-2.8c0.1-0.8,0.2-1.6,0.3-2.3
		c0.1-0.9,0.3-1.8,0.5-2.7c0.1-0.8,0.3-1.5,0.4-2.3c0.2-0.9,0.4-1.8,0.6-2.7c0.2-0.7,0.3-1.5,0.5-2.2c0.2-0.9,0.5-1.8,0.8-2.7
		c0.2-0.7,0.4-1.4,0.6-2.1c0.3-0.9,0.6-1.8,0.9-2.7c0.2-0.7,0.5-1.4,0.7-2c0.3-0.9,0.7-1.8,1.1-2.7c0.3-0.6,0.5-1.3,0.8-1.9
		c0.4-1,0.9-1.9,1.3-2.9c0.2-0.5,0.5-1.1,0.7-1.6c0.7-1.5,1.5-2.9,2.2-4.4c0.1-0.2,0.3-0.5,0.4-0.7c0.7-1.2,1.3-2.4,2-3.5
		c0.3-0.5,0.7-1.1,1-1.6c0.5-0.8,1.1-1.7,1.6-2.5c0.4-0.6,0.8-1.2,1.2-1.7c0.5-0.8,1.1-1.5,1.6-2.3c0.4-0.6,0.9-1.2,1.4-1.7
		c0.5-0.7,1.1-1.4,1.7-2.1c0.5-0.6,1-1.1,1.5-1.7c0.6-0.7,1.1-1.3,1.7-2c0.5-0.6,1-1.1,1.6-1.7c0.6-0.6,1.2-1.3,1.8-1.9
		c0.5-0.5,1.1-1.1,1.6-1.6c0.6-0.6,1.2-1.2,1.9-1.8c0.6-0.5,1.2-1,1.7-1.5c0.6-0.6,1.3-1.1,1.9-1.7c0.6-0.5,1.2-1,1.8-1.5
		c0.7-0.5,1.3-1.1,2-1.6c0.6-0.5,1.2-0.9,1.9-1.4s1.4-1,2.1-1.5c0.6-0.4,1.3-0.9,1.9-1.3c0.7-0.5,1.4-0.9,2.2-1.4
		c0.7-0.4,1.3-0.8,2-1.2c0.7-0.4,1.5-0.9,2.2-1.3s1.4-0.8,2-1.1c0.8-0.4,1.5-0.8,2.3-1.2c0.7-0.3,1.4-0.7,2.1-1
		c0.8-0.4,1.6-0.7,2.4-1.1c0.7-0.3,1.4-0.6,2.1-0.9c0.8-0.3,1.6-0.7,2.5-1c0.7-0.3,1.4-0.6,2.2-0.8c0.8-0.3,1.7-0.6,2.5-0.9
		c0.7-0.2,1.5-0.5,2.2-0.7c0.9-0.3,1.7-0.5,2.6-0.7c0.7-0.2,1.5-0.4,2.2-0.6c0.9-0.2,1.8-0.4,2.7-0.6c0.7-0.2,1.5-0.3,2.2-0.5
		c0.9-0.2,1.9-0.3,2.8-0.5c0.7-0.1,1.4-0.3,2.2-0.4c1-0.2,2-0.3,3-0.4c0.7-0.1,1.4-0.2,2.1-0.3c1.1-0.1,2.3-0.2,3.4-0.3
		c0.6,0,1.1-0.1,1.7-0.1c1.7-0.1,3.5-0.1,5.2-0.1c2.2,0,4.3,0.1,6.4,0.2c0.7,0,1.4,0.1,2.1,0.2c1.4,0.1,2.8,0.2,4.3,0.4
		c0.8,0.1,1.7,0.2,2.5,0.4c1.3,0.2,2.5,0.4,3.8,0.6c0.9,0.2,1.7,0.4,2.6,0.5c1.2,0.3,2.4,0.5,3.6,0.8c0.9,0.2,1.7,0.5,2.6,0.7
		c1.2,0.3,2.3,0.7,3.4,1c0.9,0.3,1.7,0.6,2.6,0.9c1.1,0.4,2.2,0.8,3.3,1.2c0.8,0.3,1.7,0.7,2.5,1c1.1,0.5,2.2,0.9,3.3,1.4
		c0.8,0.4,1.6,0.7,2.4,1.1c1.1,0.5,2.2,1.1,3.3,1.7c0.8,0.4,1.5,0.8,2.3,1.2c1.1,0.6,2.2,1.3,3.3,2c0.7,0.4,1.4,0.8,2,1.2
		c1.2,0.8,2.4,1.6,3.6,2.5c0.5,0.4,1,0.7,1.5,1c1.7,1.2,3.3,2.5,4.9,3.9c0.3,0.2,0.6,0.5,0.9,0.8c1.3,1.1,2.6,2.2,3.8,3.4
		c0.5,0.5,1.1,1.1,1.6,1.6c1,1,1.9,1.9,2.9,2.9c0.6,0.6,1.1,1.3,1.7,1.9c0.8,0.9,1.7,1.9,2.5,2.9c0.6,0.7,1.1,1.4,1.7,2.1
		c0.5,0.6,1,1.2,1.5,1.9l10.7-10.7c-22.5-28.7-57-45.7-93.6-45.7c-63.1,0-114.8,49.4-118.6,111.5h15
		C-227.5,389.1-227.5,388.5-227.4,388z"/>
	<path class="st1" d="M-43.4,436.4L-62.8,417c-1.7,2.8-9.9,15.5-22.9,25.8c-5.1,4.3-10.8,7.6-17,10h-0.1c-0.2,0.1-0.4,0.2-0.6,0.2
		c-5,1.9-10.4,3.2-16.2,3.4c-1.4,0.1-2.9,0.2-4.3,0.2c-32.8,0-59.5-26.7-59.5-59.5s26.7-59.5,59.5-59.5c1,0,1.9,0,2.9,0.1
		c7.1,0.1,13.6,1.7,19.6,4.3l0,0c0,0,0.1,0,0.1,0.1c5.4,2.2,10.4,5.2,14.8,8.8c13.5,10.4,22,23.6,23.7,26.4l0,0l19.4-19.4l0,0
		l32.4-32.5l-3.6-5.1c-25-35.6-65.9-56.9-109.4-56.9c-71.2,0-129.6,56-133.4,126.2h-0.2v14.7h0.2c3.8,70.3,62.2,126.2,133.4,126.2
		c43.4,0,84.3-21.3,109.4-56.9l3.6-5.1L-43.4,436.4L-43.4,436.4z M-123.9,471.3c25.2,0,48-12.4,61.7-33l10.7,10.7
		c-1.1,1.5-2.2,3-3.4,4.4c-0.4,0.5-0.8,0.9-1.2,1.4c-0.8,0.9-1.6,1.9-2.4,2.8c-0.5,0.5-1,1-1.5,1.5c-0.8,0.8-1.5,1.6-2.3,2.4
		c-0.5,0.5-1.1,1-1.7,1.5c-0.8,0.7-1.6,1.4-2.4,2.1c-0.6,0.5-1.2,1-1.8,1.5c-0.8,0.6-1.6,1.3-2.4,1.9c-0.6,0.5-1.3,0.9-1.9,1.4
		c-0.8,0.6-1.7,1.2-2.5,1.7c-0.7,0.4-1.3,0.9-2,1.3c-0.9,0.5-1.7,1.1-2.6,1.6c-0.7,0.4-1.4,0.8-2.1,1.2c-0.9,0.5-1.8,0.9-2.7,1.4
		c-0.7,0.4-1.4,0.7-2.2,1c-0.9,0.4-1.8,0.8-2.8,1.2c-0.7,0.3-1.5,0.6-2.2,0.9c-0.9,0.4-1.9,0.7-2.9,1c-0.8,0.3-1.5,0.5-2.3,0.8
		c-1,0.3-2,0.6-3,0.9c-0.8,0.2-1.5,0.4-2.3,0.6c-1,0.3-2.1,0.5-3.1,0.7c-0.8,0.2-1.5,0.3-2.3,0.5c-1.1,0.2-2.2,0.4-3.3,0.5
		c-0.7,0.1-1.4,0.2-2.2,0.3c-1.2,0.2-2.5,0.3-3.7,0.4c-0.6,0-1.2,0.1-1.8,0.2c-1.9,0.1-3.7,0.2-5.6,0.2c-1.5,0-3,0-4.5-0.1
		c-0.5,0-1-0.1-1.5-0.1c-1-0.1-2-0.1-2.9-0.2c-0.6-0.1-1.2-0.1-1.7-0.2c-0.9-0.1-1.7-0.2-2.6-0.3c-0.6-0.1-1.2-0.2-1.8-0.3
		c-0.8-0.1-1.7-0.3-2.5-0.4c-0.6-0.1-1.2-0.3-1.8-0.4c-0.8-0.2-1.6-0.4-2.4-0.5c-0.6-0.2-1.2-0.3-1.8-0.5c-0.8-0.2-1.5-0.4-2.3-0.7
		c-0.6-0.2-1.2-0.4-1.8-0.6c-0.7-0.2-1.5-0.5-2.2-0.8c-0.6-0.2-1.2-0.4-1.8-0.7c-0.7-0.3-1.5-0.6-2.2-0.9c-0.6-0.2-1.2-0.5-1.8-0.8
		c-0.7-0.3-1.4-0.6-2.1-1c-0.6-0.3-1.1-0.5-1.7-0.8c-0.7-0.3-1.4-0.7-2.1-1.1c-0.6-0.3-1.1-0.6-1.7-0.9c-0.7-0.4-1.4-0.8-2-1.2
		c-0.5-0.3-1.1-0.6-1.6-1c-0.7-0.4-1.3-0.8-2-1.3c-0.5-0.3-1-0.7-1.5-1c-0.7-0.4-1.3-0.9-1.9-1.4c-0.5-0.4-1-0.7-1.5-1.1
		c-0.6-0.5-1.3-1-1.9-1.5c-0.5-0.4-0.9-0.7-1.4-1.1c-0.6-0.5-1.3-1.1-1.9-1.6c-0.4-0.4-0.9-0.7-1.3-1.1c-0.6-0.6-1.3-1.2-1.9-1.8
		c-0.4-0.4-0.8-0.7-1.1-1.1c-0.7-0.7-1.3-1.3-1.9-2c-0.3-0.3-0.6-0.7-1-1c-0.7-0.8-1.5-1.7-2.2-2.5c-0.2-0.2-0.4-0.4-0.6-0.7
		c-1.8-2.2-3.5-4.4-5-6.7c-0.2-0.3-0.4-0.6-0.6-1c-0.6-0.9-1.1-1.7-1.7-2.6c-0.3-0.4-0.5-0.9-0.7-1.3c-0.5-0.8-0.9-1.6-1.4-2.4
		c-0.3-0.5-0.5-1-0.8-1.5c-0.4-0.8-0.8-1.5-1.2-2.3c-0.3-0.5-0.5-1.1-0.7-1.6c-0.3-0.7-0.7-1.5-1-2.3c-0.2-0.6-0.5-1.1-0.7-1.7
		c-0.3-0.7-0.6-1.5-0.9-2.3c-0.2-0.6-0.4-1.2-0.6-1.8c-0.3-0.8-0.5-1.5-0.8-2.3c-0.2-0.6-0.4-1.2-0.6-1.8c-0.2-0.8-0.4-1.5-0.7-2.3
		c-0.2-0.6-0.3-1.2-0.5-1.9c-0.2-0.8-0.4-1.5-0.5-2.3c-0.1-0.6-0.3-1.3-0.4-1.9c-0.2-0.8-0.3-1.6-0.4-2.3c-0.1-0.7-0.2-1.3-0.3-2
		c-0.1-0.8-0.2-1.6-0.3-2.4c-0.1-0.7-0.2-1.3-0.2-2c0-0.3,0-0.6-0.1-0.9h14.9C-194.1,441.9-162.4,471.3-123.9,471.3z M-62.3,355.8
		c-13.7-20.6-36.5-33-61.7-33c-38.5,0-70.2,29.4-73.9,66.9h-14.9c0-0.3,0-0.6,0.1-0.9c0.1-0.7,0.1-1.3,0.2-2
		c0.1-0.8,0.2-1.6,0.3-2.4c0.1-0.7,0.2-1.3,0.3-2c0.1-0.8,0.3-1.6,0.4-2.3c0.1-0.6,0.3-1.3,0.4-1.9c0.2-0.8,0.3-1.5,0.5-2.3
		c0.2-0.6,0.3-1.3,0.5-1.9c0.2-0.8,0.4-1.5,0.7-2.3c0.2-0.6,0.4-1.2,0.6-1.8c0.2-0.8,0.5-1.5,0.8-2.3c0.2-0.6,0.4-1.2,0.6-1.8
		c0.3-0.8,0.6-1.5,0.9-2.3c0.2-0.6,0.5-1.1,0.7-1.7c0.3-0.8,0.7-1.5,1-2.3c0.2-0.5,0.5-1.1,0.7-1.6c0.4-0.8,0.8-1.5,1.2-2.3
		c0.3-0.5,0.5-1,0.8-1.5c0.4-0.8,0.9-1.6,1.4-2.3c0.3-0.4,0.5-0.9,0.8-1.3c0.5-0.9,1.1-1.7,1.6-2.6c0.2-0.3,0.4-0.7,0.6-1
		c1.6-2.3,3.3-4.6,5-6.7c0.2-0.2,0.4-0.4,0.6-0.7c0.7-0.8,1.4-1.7,2.2-2.5c0.3-0.3,0.6-0.7,1-1c0.6-0.7,1.3-1.4,1.9-2
		c0.4-0.4,0.8-0.7,1.1-1.1c0.6-0.6,1.2-1.2,1.9-1.8c0.4-0.4,0.8-0.8,1.3-1.1c0.6-0.5,1.2-1.1,1.9-1.6c0.4-0.4,0.9-0.7,1.4-1.1
		c0.6-0.5,1.3-1,1.9-1.5c0.5-0.4,1-0.7,1.5-1.1c0.6-0.5,1.3-0.9,1.9-1.4c0.5-0.3,1-0.7,1.5-1c0.7-0.4,1.3-0.9,2-1.3
		c0.5-0.3,1.1-0.6,1.6-1c0.7-0.4,1.3-0.8,2-1.2c0.5-0.3,1.1-0.6,1.7-0.9c0.7-0.4,1.4-0.7,2.1-1.1c0.6-0.3,1.1-0.6,1.7-0.8
		c0.7-0.3,1.4-0.7,2.1-1c0.6-0.3,1.2-0.5,1.8-0.7c0.7-0.3,1.4-0.6,2.2-0.9c0.6-0.2,1.2-0.5,1.8-0.7c0.7-0.3,1.5-0.5,2.2-0.8
		c0.6-0.2,1.2-0.4,1.8-0.6c0.8-0.2,1.5-0.4,2.3-0.7c0.6-0.2,1.2-0.3,1.8-0.5c0.8-0.2,1.6-0.4,2.4-0.5c0.6-0.1,1.2-0.3,1.8-0.4
		c0.8-0.2,1.6-0.3,2.5-0.4c0.6-0.1,1.2-0.2,1.8-0.3c0.9-0.1,1.7-0.2,2.6-0.3c0.6-0.1,1.2-0.2,1.7-0.2c1-0.1,2-0.2,2.9-0.2
		c0.5,0,1-0.1,1.5-0.1c1.5-0.1,3-0.1,4.5-0.1c1.9,0,3.7,0.1,5.6,0.2c0.6,0,1.2,0.1,1.8,0.2c1.2,0.1,2.5,0.2,3.7,0.4
		c0.7,0.1,1.4,0.2,2.2,0.3c1.1,0.2,2.2,0.3,3.3,0.5c0.8,0.1,1.5,0.3,2.3,0.5c1,0.2,2.1,0.4,3.1,0.7c0.8,0.2,1.5,0.4,2.3,0.6
		c1,0.3,2,0.6,3,0.9c0.8,0.2,1.5,0.5,2.3,0.8c1,0.3,1.9,0.7,2.9,1c0.7,0.3,1.5,0.6,2.2,0.9c0.9,0.4,1.9,0.8,2.8,1.2
		c0.7,0.3,1.5,0.7,2.2,1c0.9,0.4,1.8,0.9,2.7,1.4c0.7,0.4,1.4,0.8,2.1,1.2c0.9,0.5,1.7,1,2.6,1.6c0.7,0.4,1.4,0.8,2,1.3
		c0.9,0.6,1.7,1.1,2.5,1.7c0.6,0.5,1.3,0.9,1.9,1.4c0.8,0.6,1.6,1.3,2.4,1.9c0.6,0.5,1.2,1,1.8,1.5c0.8,0.7,1.6,1.4,2.4,2.1
		c0.6,0.5,1.1,1,1.7,1.5c0.8,0.8,1.6,1.6,2.3,2.4c0.5,0.5,1,1,1.5,1.5c0.8,0.9,1.6,1.8,2.4,2.8c0.4,0.5,0.8,0.9,1.2,1.4
		c1.2,1.4,2.3,2.9,3.4,4.4L-62.3,355.8z M-123.9,278.2c36.6,0,71.1,17,93.6,45.7L-41,334.5c-0.5-0.6-1-1.2-1.5-1.9
		c-0.6-0.7-1.1-1.4-1.7-2.1c-0.8-1-1.7-1.9-2.5-2.9c-0.6-0.6-1.1-1.3-1.7-1.9c-0.9-1-1.9-1.9-2.9-2.9c-0.5-0.5-1-1.1-1.6-1.6
		c-1.2-1.2-2.5-2.3-3.8-3.4c-0.3-0.2-0.6-0.5-0.9-0.8c-1.6-1.3-3.2-2.6-4.9-3.9c-0.5-0.4-1-0.7-1.5-1c-1.2-0.9-2.4-1.7-3.6-2.5
		c-0.7-0.4-1.4-0.8-2-1.2c-1.1-0.7-2.2-1.3-3.3-2c-0.7-0.4-1.5-0.8-2.3-1.2c-1.1-0.6-2.2-1.1-3.3-1.7c-0.8-0.4-1.6-0.8-2.4-1.1
		c-1.1-0.5-2.2-1-3.3-1.4c-0.8-0.3-1.7-0.7-2.5-1c-1.1-0.4-2.2-0.8-3.3-1.2c-0.9-0.3-1.7-0.6-2.6-0.9c-1.1-0.4-2.3-0.7-3.4-1
		c-0.9-0.2-1.7-0.5-2.6-0.7c-1.2-0.3-2.4-0.6-3.6-0.8c-0.9-0.2-1.7-0.4-2.6-0.5c-1.3-0.2-2.5-0.4-3.8-0.6c-0.8-0.1-1.6-0.3-2.5-0.4
		c-1.4-0.2-2.8-0.3-4.3-0.4c-0.7-0.1-1.4-0.1-2.1-0.2c-2.1-0.1-4.3-0.2-6.4-0.2c-1.8,0-3.5,0-5.2,0.1c-0.6,0-1.2,0.1-1.7,0.1
		c-1.1,0.1-2.3,0.1-3.4,0.3c-0.7,0.1-1.4,0.2-2.1,0.3c-1,0.1-2,0.2-3,0.4c-0.7,0.1-1.4,0.2-2.2,0.4c-0.9,0.2-1.9,0.3-2.8,0.5
		c-0.7,0.1-1.5,0.3-2.2,0.5c-0.9,0.2-1.8,0.4-2.7,0.6c-0.7,0.2-1.5,0.4-2.2,0.6c-0.9,0.2-1.8,0.5-2.6,0.7c-0.7,0.2-1.5,0.5-2.2,0.7
		c-0.8,0.3-1.7,0.6-2.5,0.9c-0.7,0.3-1.5,0.5-2.2,0.8c-0.8,0.3-1.6,0.6-2.5,1c-0.7,0.3-1.4,0.6-2.1,0.9c-0.8,0.4-1.6,0.7-2.4,1.1
		c-0.7,0.3-1.4,0.7-2.1,1c-0.8,0.4-1.5,0.8-2.3,1.2c-0.7,0.4-1.4,0.7-2,1.1c-0.8,0.4-1.5,0.9-2.2,1.3c-0.7,0.4-1.3,0.8-2,1.2
		c-0.7,0.5-1.4,0.9-2.2,1.4c-0.7,0.4-1.3,0.9-1.9,1.3c-0.7,0.5-1.4,1-2.1,1.5c-0.6,0.5-1.3,0.9-1.9,1.4c-0.7,0.5-1.3,1-2,1.6
		c-0.6,0.5-1.2,1-1.8,1.5c-0.7,0.5-1.3,1.1-1.9,1.7c-0.6,0.5-1.2,1-1.7,1.5c-0.6,0.6-1.2,1.2-1.9,1.8c-0.6,0.5-1.1,1.1-1.6,1.6
		c-0.6,0.6-1.2,1.2-1.8,1.9c-0.5,0.6-1,1.1-1.6,1.7c-0.6,0.7-1.2,1.3-1.7,2c-0.5,0.6-1,1.1-1.5,1.7c-0.6,0.7-1.1,1.4-1.7,2.1
		c-0.5,0.6-0.9,1.2-1.4,1.7c-0.6,0.7-1.1,1.5-1.6,2.3c-0.4,0.6-0.8,1.2-1.2,1.7c-0.6,0.8-1.1,1.7-1.6,2.5c-0.3,0.5-0.7,1.1-1,1.6
		c-0.7,1.2-1.4,2.3-2,3.5c-0.1,0.2-0.3,0.5-0.4,0.7c-0.8,1.4-1.5,2.9-2.2,4.4c-0.3,0.5-0.5,1.1-0.7,1.6c-0.4,1-0.9,1.9-1.3,2.9
		c-0.3,0.6-0.5,1.3-0.8,1.9c-0.4,0.9-0.7,1.8-1.1,2.7c-0.2,0.7-0.5,1.4-0.7,2c-0.3,0.9-0.6,1.8-0.9,2.7c-0.2,0.7-0.4,1.4-0.6,2.1
		c-0.3,0.9-0.5,1.8-0.8,2.7c-0.2,0.7-0.4,1.5-0.5,2.2c-0.2,0.9-0.4,1.8-0.6,2.7c-0.2,0.8-0.3,1.5-0.4,2.3c-0.2,0.9-0.3,1.8-0.5,2.7
		c-0.1,0.8-0.2,1.5-0.3,2.3c-0.1,0.9-0.2,1.8-0.4,2.8c-0.1,0.8-0.2,1.6-0.2,2.4c-0.1,0.6-0.1,1.1-0.2,1.7h-15
		C-238.8,327.6-187,278.2-123.9,278.2z M-41,459.6l10.7,10.7c-22.5,28.7-57,45.7-93.6,45.7c-63.1,0-114.8-49.4-118.6-111.5h15
		c0,0.6,0.1,1.2,0.2,1.7c0.1,0.8,0.1,1.6,0.2,2.4c0.1,0.9,0.2,1.8,0.4,2.8c0.1,0.8,0.2,1.6,0.3,2.3c0.1,0.9,0.3,1.8,0.5,2.7
		c0.1,0.8,0.3,1.5,0.4,2.3c0.2,0.9,0.4,1.8,0.6,2.7c0.2,0.7,0.3,1.5,0.5,2.2c0.2,0.9,0.5,1.8,0.8,2.7c0.2,0.7,0.4,1.4,0.6,2.1
		c0.3,0.9,0.6,1.8,0.9,2.7c0.2,0.7,0.5,1.4,0.7,2c0.3,0.9,0.7,1.8,1.1,2.8c0.2,0.6,0.5,1.2,0.7,1.9c0.4,1,0.9,2,1.4,3
		c0.2,0.5,0.5,1,0.7,1.5c0.7,1.5,1.5,2.9,2.2,4.4c0.1,0.2,0.2,0.4,0.3,0.6c0.7,1.2,1.4,2.5,2.1,3.7c0.3,0.5,0.6,1,1,1.5
		c0.6,0.9,1.1,1.8,1.7,2.6c0.4,0.6,0.8,1.1,1.2,1.7c0.5,0.8,1.1,1.6,1.6,2.3c0.4,0.6,0.9,1.1,1.3,1.7c0.6,0.7,1.1,1.4,1.7,2.1
		c0.5,0.6,1,1.1,1.4,1.7c0.6,0.7,1.2,1.4,1.8,2c0.5,0.6,1,1.1,1.5,1.6c0.6,0.6,1.2,1.3,1.8,1.9c0.5,0.5,1.1,1.1,1.6,1.6
		c0.6,0.6,1.3,1.2,1.9,1.8c0.6,0.5,1.1,1,1.7,1.5c0.6,0.6,1.3,1.1,2,1.7c0.6,0.5,1.2,1,1.8,1.5c0.7,0.5,1.3,1.1,2,1.6
		c0.6,0.5,1.2,0.9,1.8,1.4c0.7,0.5,1.4,1,2.1,1.5c0.6,0.4,1.3,0.9,1.9,1.3c0.7,0.5,1.5,0.9,2.2,1.4c0.7,0.4,1.3,0.8,2,1.2
		c0.7,0.4,1.5,0.9,2.3,1.3c0.7,0.4,1.3,0.7,2,1.1c0.8,0.4,1.5,0.8,2.3,1.2c0.7,0.3,1.4,0.7,2.1,1c0.8,0.4,1.6,0.7,2.4,1.1
		c0.7,0.3,1.4,0.6,2.1,0.9c0.8,0.3,1.6,0.7,2.5,1c0.7,0.3,1.4,0.6,2.2,0.8c0.8,0.3,1.7,0.6,2.5,0.9c0.7,0.2,1.5,0.5,2.2,0.7
		c0.9,0.3,1.8,0.5,2.6,0.8c0.7,0.2,1.5,0.4,2.2,0.6c0.9,0.2,1.8,0.4,2.7,0.6c0.7,0.2,1.5,0.3,2.2,0.5c0.9,0.2,1.9,0.3,2.9,0.5
		c0.7,0.1,1.4,0.3,2.2,0.4c1,0.2,2,0.3,3,0.4c0.7,0.1,1.4,0.2,2,0.2c1.1,0.1,2.3,0.2,3.4,0.3c0.6,0,1.1,0.1,1.7,0.1
		c1.7,0.1,3.5,0.1,5.2,0.1c2.2,0,4.3-0.1,6.4-0.2c0.7,0,1.4-0.1,2.1-0.2c1.4-0.1,2.8-0.2,4.3-0.4c0.8-0.1,1.7-0.2,2.5-0.4
		c1.3-0.2,2.5-0.4,3.8-0.6c0.9-0.2,1.7-0.4,2.6-0.5c1.2-0.3,2.4-0.5,3.6-0.8c0.9-0.2,1.7-0.5,2.6-0.7c1.2-0.3,2.3-0.7,3.4-1
		c0.9-0.3,1.7-0.6,2.6-0.9c1.1-0.4,2.2-0.8,3.3-1.2c0.8-0.3,1.7-0.7,2.5-1c1.1-0.5,2.2-0.9,3.3-1.4c0.8-0.4,1.6-0.7,2.4-1.1
		c1.1-0.5,2.2-1.1,3.3-1.7c0.8-0.4,1.5-0.8,2.3-1.2c1.1-0.6,2.2-1.3,3.3-2c0.7-0.4,1.4-0.8,2-1.2c1.2-0.8,2.4-1.6,3.6-2.5
		c0.5-0.4,1-0.7,1.5-1c1.7-1.2,3.3-2.5,4.9-3.9c0.3-0.2,0.6-0.5,0.9-0.8c1.3-1.1,2.6-2.2,3.8-3.4c0.5-0.5,1.1-1.1,1.6-1.6
		c1-1,1.9-1.9,2.9-2.9c0.6-0.6,1.1-1.3,1.7-1.9c0.8-0.9,1.7-1.9,2.5-2.9c0.6-0.7,1.1-1.4,1.7-2.1C-42,460.9-41.5,460.2-41,459.6z"/>
	<path class="st2" d="M-119.6,456.4c5.7-0.3,11.1-1.5,16.2-3.4C-108.6,454.8-114,456-119.6,456.4z"/>
	<path class="st0" d="M-102.8,452.7L-102.8,452.7"/>
	<path class="st0" d="M-101.4,342c0,0-0.1,0-0.1-0.1"/>
</g>
</svg>
