<?xml version="1.0" encoding="utf-8"?>
<!-- Generator: Adobe Illustrator 19.0.0, SVG Export Plug-In . SVG Version: 6.00 Build 0)  -->
<!DOCTYPE svg PUBLIC "-//W3C//DTD SVG 1.1//EN" "http://www.w3.org/Graphics/SVG/1.1/DTD/svg11.dtd">
<svg version="1.1" id="Layer_1" xmlns="http://www.w3.org/2000/svg" xmlns:xlink="http://www.w3.org/1999/xlink" x="0px" y="0px"
	 viewBox="0 0 813.9 233" style="enable-background:new 0 0 813.9 233;" xml:space="preserve">
<style type="text/css">
	.st0{fill:#ffffff;}
	.st1{fill:#FFFFFF;}
</style>
<g>
	<path class="st0" d="M591.6,16.8v22.2v11v22.1h5.5l68.6,0.1l0,144.1h22.1h11h22.1V79.5v-7.4l68.8-0.1h5.5V49.9v-11V16.8H591.6z
		 M669,61.1h-3.2h-63.1V49.9h77.3L669,61.1z M687.8,205.2h-11.1l0-136.3l8.2-7.9h-0.5l3.5-3.5V205.2z M709.9,205.2h-11.1V57.5
		l3.5,3.5h-0.5l8.2,7.9v0v3.2V205.2z M784.2,61.1h-63.3h-3.2l-10.9-11.1h77.4V61.1z M706,38.9h-7.2v0H696h-5.4h-2.8v0h-7.2h-78V27.8
		h181.6v11.2H706z"/>
	<path class="st0" d="M462.9,16.8h-22.1l0,99.7c0,24.5-19.9,44.4-44.4,44.4c-24.5,0-44.4-19.9-44.4-44.4l0-99.7h-22.1h-11h-22.2
		v99.7c0,53.1,41.8,96.7,94.2,99.5v0.2h5.5h5.5V216c52.4-2.9,94.2-46.4,94.2-99.5V16.8h-22.2H462.9z M451.5,122h0.3V27.8h11.1v88.7
		l0,1.2c0,1.1-0.1,2.2-0.1,3.3c0,0.4-0.1,0.8-0.1,1.2c-0.1,0.7-0.1,1.4-0.2,2c-0.1,0.5-0.1,0.9-0.2,1.4c-0.1,0.6-0.2,1.2-0.3,1.8
		c-0.1,0.5-0.2,1-0.3,1.5c-0.1,0.6-0.2,1.1-0.3,1.7c-0.1,0.5-0.2,1-0.4,1.5c-0.1,0.5-0.3,1.1-0.4,1.6c-0.1,0.5-0.3,1-0.4,1.5
		c-0.1,0.5-0.3,1-0.5,1.5c-0.2,0.5-0.3,1-0.5,1.5c-0.2,0.5-0.3,1-0.5,1.5c-0.2,0.5-0.4,1-0.6,1.5c-0.2,0.5-0.4,1-0.6,1.4
		c-0.2,0.5-0.4,1-0.6,1.5c-0.2,0.5-0.4,0.9-0.6,1.4c-0.2,0.5-0.5,1-0.7,1.4c-0.2,0.4-0.5,0.9-0.7,1.3c-0.3,0.5-0.5,0.9-0.8,1.4
		c-0.2,0.4-0.5,0.9-0.8,1.3c-0.3,0.5-0.6,0.9-0.8,1.4c-0.3,0.4-0.5,0.8-0.8,1.3c-0.3,0.4-0.6,0.9-0.9,1.3c-0.3,0.4-0.6,0.8-0.9,1.2
		c-0.3,0.4-0.6,0.8-0.9,1.3c-0.3,0.4-0.6,0.8-0.9,1.2c-0.3,0.4-0.7,0.8-1,1.2c-0.3,0.4-0.7,0.8-1,1.1c-0.3,0.4-0.7,0.8-1,1.2
		c-0.3,0.4-0.7,0.7-1.1,1.1c-0.4,0.4-0.7,0.7-1.1,1.1c-0.4,0.4-0.8,0.7-1.1,1.1c-0.4,0.3-0.7,0.7-1.1,1c-0.4,0.4-0.9,0.7-1.3,1.1
		c-0.4,0.3-0.7,0.6-1.1,0.9c-0.8,0.6-1.6,1.3-2.4,1.9c-0.3,0.2-0.7,0.5-1,0.7c-0.5,0.4-1,0.7-1.5,1.1c-0.4,0.3-0.8,0.5-1.1,0.7
		c-0.5,0.3-1,0.6-1.5,0.9c-0.4,0.2-0.8,0.5-1.2,0.7c-0.5,0.3-1,0.6-1.5,0.8c-0.4,0.2-0.8,0.4-1.3,0.7c-0.5,0.3-1,0.5-1.5,0.8
		c-0.4,0.2-0.9,0.4-1.3,0.6c-0.5,0.2-1,0.5-1.5,0.7c-0.4,0.2-0.9,0.4-1.3,0.5c-0.5,0.2-1,0.4-1.6,0.6c-0.5,0.2-0.9,0.3-1.4,0.5
		c-0.5,0.2-1.1,0.4-1.6,0.5c-0.5,0.1-0.9,0.3-1.4,0.4c-0.5,0.2-1.1,0.3-1.6,0.5c-0.5,0.1-0.9,0.2-1.4,0.4c-0.6,0.1-1.1,0.3-1.7,0.4
		c-0.5,0.1-1,0.2-1.4,0.3c-0.6,0.1-1.1,0.2-1.7,0.3c-0.5,0.1-1,0.2-1.5,0.2c-0.6,0.1-1.2,0.2-1.7,0.2c-0.5,0.1-1,0.1-1.5,0.2
		c-0.2,0-0.4,0-0.6,0v-11.1C428.1,169,448.9,148.1,451.5,122z M329.9,27.8H341v88.7l0,5.5h0.3c2.6,26.2,23.5,47,49.6,49.6v11.1
		c-0.2,0-0.4,0-0.6,0c-0.5,0-1-0.1-1.5-0.2c-0.6-0.1-1.2-0.1-1.8-0.2c-0.5-0.1-1-0.1-1.4-0.2c-0.6-0.1-1.2-0.2-1.7-0.3
		c-0.5-0.1-0.9-0.2-1.4-0.3c-0.6-0.1-1.1-0.3-1.7-0.4c-0.5-0.1-0.9-0.2-1.4-0.4c-0.6-0.1-1.1-0.3-1.7-0.5c-0.5-0.1-0.9-0.3-1.4-0.4
		c-0.6-0.2-1.1-0.4-1.7-0.6c-0.4-0.2-0.9-0.3-1.3-0.5c-0.5-0.2-1.1-0.4-1.6-0.6c-0.4-0.2-0.9-0.3-1.3-0.5c-0.5-0.2-1.1-0.5-1.6-0.7
		c-0.4-0.2-0.8-0.4-1.2-0.6c-0.5-0.3-1.1-0.5-1.6-0.8c-0.4-0.2-0.8-0.4-1.1-0.6c-0.6-0.3-1.1-0.6-1.6-0.9c-0.4-0.2-0.7-0.4-1.1-0.6
		c-0.6-0.3-1.1-0.7-1.7-1.1c-0.3-0.2-0.6-0.4-0.9-0.6c-0.7-0.5-1.4-1-2.1-1.4c-0.2-0.1-0.3-0.2-0.5-0.3c-0.8-0.6-1.6-1.2-2.4-1.9
		c-0.2-0.1-0.4-0.3-0.5-0.5c-0.6-0.5-1.2-1-1.8-1.5c-0.3-0.2-0.5-0.5-0.8-0.8c-0.5-0.4-1-0.9-1.4-1.3c-0.3-0.3-0.6-0.6-0.9-0.9
		c-0.4-0.4-0.9-0.9-1.3-1.3c-0.3-0.3-0.6-0.7-0.9-1c-0.4-0.4-0.8-0.9-1.2-1.3c-0.3-0.3-0.6-0.7-0.9-1.1c-0.4-0.4-0.7-0.9-1.1-1.3
		c-0.3-0.4-0.6-0.7-0.8-1.1c-0.3-0.5-0.7-0.9-1-1.4c-0.3-0.4-0.5-0.8-0.8-1.2c-0.3-0.5-0.6-0.9-0.9-1.4c-0.3-0.4-0.5-0.8-0.8-1.2
		c-0.3-0.5-0.6-1-0.8-1.4c-0.2-0.4-0.5-0.8-0.7-1.3c-0.3-0.5-0.5-1-0.8-1.5c-0.2-0.4-0.4-0.9-0.6-1.3c-0.2-0.5-0.5-1-0.7-1.5
		c-0.2-0.4-0.4-0.9-0.6-1.3c-0.2-0.5-0.4-1-0.6-1.5c-0.2-0.5-0.4-0.9-0.5-1.4c-0.2-0.5-0.4-1.1-0.6-1.6c-0.2-0.5-0.3-0.9-0.5-1.4
		c-0.2-0.5-0.3-1.1-0.5-1.6c-0.1-0.5-0.3-0.9-0.4-1.4c-0.2-0.6-0.3-1.1-0.4-1.7c-0.1-0.5-0.2-0.9-0.3-1.4c-0.1-0.6-0.2-1.2-0.3-1.8
		c-0.1-0.5-0.2-0.9-0.3-1.4c-0.1-0.6-0.2-1.3-0.3-1.9c-0.1-0.4-0.1-0.9-0.2-1.3c-0.1-0.7-0.1-1.4-0.2-2.1c0-0.4-0.1-0.7-0.1-1.1
		c-0.1-1.1-0.1-2.1-0.1-3.2c0,0,0,0,0-0.1V27.8z M307.7,116.5V27.8h11.2l0,88.7c0,1.3,0,2.6,0.1,3.9c0,0.4,0.1,0.9,0.1,1.3
		c0.1,0.9,0.1,1.7,0.2,2.6c0.1,0.5,0.1,1,0.2,1.5c0.1,0.8,0.2,1.5,0.3,2.3c0.1,0.5,0.2,1.1,0.3,1.6c0.1,0.7,0.2,1.4,0.4,2.1
		c0.1,0.6,0.2,1.1,0.4,1.6c0.2,0.7,0.3,1.4,0.5,2c0.1,0.6,0.3,1.1,0.4,1.7c0.2,0.7,0.4,1.3,0.6,2c0.2,0.6,0.4,1.1,0.5,1.6
		c0.2,0.6,0.4,1.3,0.6,1.9c0.2,0.5,0.4,1.1,0.6,1.6c0.2,0.6,0.5,1.2,0.7,1.8c0.2,0.5,0.5,1.1,0.7,1.6c0.3,0.6,0.5,1.2,0.8,1.8
		c0.2,0.5,0.5,1.1,0.8,1.6c0.3,0.6,0.6,1.1,0.9,1.7c0.3,0.5,0.6,1,0.8,1.5c0.3,0.6,0.6,1.1,1,1.7c0.3,0.5,0.6,1,0.9,1.5
		c0.3,0.5,0.7,1.1,1,1.6c0.3,0.5,0.6,1,1,1.5c0.4,0.5,0.7,1,1.1,1.5c0.3,0.5,0.7,0.9,1,1.4c0.4,0.5,0.8,1,1.2,1.5
		c0.4,0.5,0.7,0.9,1.1,1.4c0.4,0.5,0.8,1,1.2,1.4c0.4,0.4,0.8,0.9,1.2,1.3c0.4,0.5,0.9,0.9,1.3,1.4c0.4,0.4,0.8,0.8,1.2,1.2
		c0.5,0.4,0.9,0.9,1.4,1.3c0.4,0.4,0.8,0.8,1.3,1.2c0.5,0.4,1,0.8,1.5,1.3c0.4,0.4,0.9,0.7,1.3,1.1c0.5,0.4,1,0.8,1.5,1.2
		c0.4,0.3,0.9,0.7,1.3,1c0.5,0.4,1.1,0.8,1.7,1.2c0.4,0.3,0.9,0.6,1.3,0.9c0.6,0.4,1.2,0.8,1.8,1.2c0.4,0.3,0.8,0.5,1.3,0.8
		c0.8,0.5,1.6,0.9,2.4,1.4c0.3,0.2,0.6,0.3,0.9,0.5c1,0.6,2.1,1.1,3.1,1.6c0.4,0.2,0.8,0.4,1.2,0.6c0.7,0.3,1.4,0.7,2.1,1
		c0.5,0.2,1,0.4,1.5,0.6c0.7,0.3,1.3,0.5,2,0.8c0.5,0.2,1,0.4,1.6,0.5c0.7,0.2,1.3,0.5,2,0.7c0.5,0.2,1.1,0.3,1.6,0.5
		c0.7,0.2,1.3,0.4,2,0.6c0.6,0.1,1.1,0.3,1.7,0.4c0.7,0.2,1.3,0.3,2,0.5c0.6,0.1,1.1,0.2,1.7,0.3c0.7,0.1,1.3,0.3,2,0.4
		c0.6,0.1,1.2,0.2,1.7,0.3c0.7,0.1,1.4,0.2,2,0.3c0.6,0.1,1.2,0.1,1.8,0.2c0.4,0,0.9,0.1,1.3,0.1v0.2v11
		C344.5,202.1,307.7,163.5,307.7,116.5z M485.1,27.8v88.7c0,47.1-36.8,85.7-83.2,88.5v-11v-0.2c0.4,0,0.9-0.1,1.3-0.1
		c0.6-0.1,1.2-0.1,1.8-0.2c0.7-0.1,1.4-0.2,2-0.3c0.6-0.1,1.2-0.2,1.7-0.3c0.7-0.1,1.4-0.2,2-0.4c0.6-0.1,1.1-0.2,1.7-0.3
		c0.7-0.1,1.3-0.3,2-0.5c0.6-0.1,1.1-0.3,1.7-0.4c0.7-0.2,1.3-0.4,2-0.6c0.5-0.2,1.1-0.3,1.6-0.5c0.7-0.2,1.3-0.4,2-0.7
		c0.5-0.2,1-0.3,1.6-0.5c0.7-0.2,1.3-0.5,2-0.8c0.5-0.2,1-0.4,1.5-0.6c0.7-0.3,1.4-0.6,2.1-1c0.4-0.2,0.8-0.4,1.2-0.6
		c1-0.5,2.1-1,3.1-1.6c0.3-0.2,0.6-0.3,0.9-0.5c0.8-0.5,1.6-0.9,2.4-1.4c0.4-0.3,0.8-0.5,1.3-0.8c0.6-0.4,1.2-0.8,1.8-1.2
		c0.4-0.3,0.9-0.6,1.3-0.9c0.6-0.4,1.1-0.8,1.7-1.2c0.4-0.3,0.9-0.7,1.3-1c0.5-0.4,1-0.8,1.5-1.2c0.4-0.4,0.9-0.7,1.3-1.1
		c0.5-0.4,1-0.8,1.5-1.3c0.4-0.4,0.8-0.8,1.3-1.2c0.5-0.4,0.9-0.9,1.4-1.3c0.4-0.4,0.8-0.8,1.2-1.2c0.4-0.5,0.9-0.9,1.3-1.4
		c0.4-0.4,0.8-0.9,1.2-1.3c0.4-0.5,0.8-1,1.2-1.4c0.4-0.4,0.7-0.9,1.1-1.4c0.4-0.5,0.8-1,1.2-1.5c0.4-0.5,0.7-0.9,1-1.4
		c0.4-0.5,0.7-1,1.1-1.5c0.3-0.5,0.7-1,1-1.5c0.4-0.5,0.7-1.1,1-1.6c0.3-0.5,0.6-1,0.9-1.5c0.3-0.5,0.6-1.1,1-1.7
		c0.3-0.5,0.6-1,0.8-1.5c0.3-0.6,0.6-1.1,0.9-1.7c0.3-0.5,0.5-1,0.8-1.6c0.3-0.6,0.5-1.2,0.8-1.8c0.2-0.5,0.5-1.1,0.7-1.6
		c0.3-0.6,0.5-1.2,0.7-1.8c0.2-0.5,0.4-1.1,0.6-1.6c0.2-0.6,0.4-1.3,0.6-1.9c0.2-0.5,0.4-1.1,0.5-1.6c0.2-0.6,0.4-1.3,0.6-2
		c0.2-0.5,0.3-1.1,0.4-1.7c0.2-0.7,0.3-1.4,0.5-2c0.1-0.5,0.3-1.1,0.4-1.6c0.1-0.7,0.3-1.4,0.4-2.1c0.1-0.5,0.2-1.1,0.3-1.6
		c0.1-0.7,0.2-1.5,0.3-2.3c0.1-0.5,0.1-1,0.2-1.5c0.1-0.8,0.1-1.7,0.2-2.6c0-0.4,0.1-0.9,0.1-1.3c0.1-1.3,0.1-2.6,0.1-3.9l0-88.7
		H485.1z"/>
	<g>
		<path class="st0" d="M178.5,145.8L164,131.3l0,0c-1.3,2.1-7.4,11.6-17.1,19.2c-3.8,3.2-8.1,5.7-12.7,7.5c0,0,0,0-0.1,0
			c-0.1,0.1-0.3,0.1-0.4,0.2c-3.7,1.4-7.8,2.4-12,2.6c-1.1,0.1-2.1,0.1-3.2,0.1C93.9,160.9,74,141,74,116.5
			c0-24.5,19.9-44.4,44.4-44.4c0.7,0,1.4,0,2.1,0.1c5.3,0.1,10.1,1.3,14.6,3.2c0,0,0,0,0,0c0,0,0.1,0,0.1,0c4,1.6,7.7,3.9,11.1,6.6
			c10.1,7.7,16.4,17.6,17.7,19.7l0,0l14.5-14.5v0L202.6,63l-2.7-3.8c-18.7-26.6-49.2-42.4-81.6-42.4c-53.1,0-96.7,41.8-99.5,94.2
			h-0.2v11h0.2c2.9,52.4,46.4,94.2,99.5,94.2c32.4,0,62.9-15.9,81.6-42.4l2.7-3.8L178.5,145.8L178.5,145.8z M118.4,171.9
			c18.8,0,35.8-9.3,46-24.6l8,8c-0.8,1.1-1.6,2.2-2.5,3.3c-0.3,0.4-0.6,0.7-0.9,1c-0.6,0.7-1.2,1.4-1.8,2.1
			c-0.4,0.4-0.7,0.8-1.1,1.2c-0.6,0.6-1.2,1.2-1.7,1.8c-0.4,0.4-0.8,0.8-1.3,1.1c-0.6,0.5-1.2,1.1-1.8,1.6c-0.4,0.4-0.9,0.7-1.4,1.1
			c-0.6,0.5-1.2,1-1.8,1.4c-0.5,0.4-1,0.7-1.4,1c-0.6,0.4-1.2,0.9-1.9,1.3c-0.5,0.3-1,0.6-1.5,1c-0.6,0.4-1.3,0.8-1.9,1.2
			c-0.5,0.3-1,0.6-1.6,0.9c-0.7,0.4-1.3,0.7-2,1c-0.5,0.3-1.1,0.5-1.6,0.8c-0.7,0.3-1.4,0.6-2.1,0.9c-0.6,0.2-1.1,0.5-1.7,0.7
			c-0.7,0.3-1.4,0.5-2.1,0.8c-0.6,0.2-1.1,0.4-1.7,0.6c-0.7,0.2-1.5,0.4-2.2,0.6c-0.6,0.2-1.1,0.3-1.7,0.5c-0.8,0.2-1.5,0.4-2.3,0.5
			c-0.6,0.1-1.1,0.3-1.7,0.4c-0.8,0.2-1.6,0.3-2.5,0.4c-0.5,0.1-1.1,0.2-1.6,0.2c-0.9,0.1-1.8,0.2-2.8,0.3c-0.5,0-0.9,0.1-1.4,0.1
			c-1.4,0.1-2.8,0.1-4.2,0.1c-1.1,0-2.2,0-3.3-0.1c-0.4,0-0.7-0.1-1.1-0.1c-0.7,0-1.5-0.1-2.2-0.2c-0.4,0-0.9-0.1-1.3-0.2
			c-0.7-0.1-1.3-0.2-2-0.2c-0.5-0.1-0.9-0.2-1.4-0.2c-0.6-0.1-1.2-0.2-1.8-0.3c-0.5-0.1-0.9-0.2-1.4-0.3c-0.6-0.1-1.2-0.3-1.8-0.4
			c-0.5-0.1-0.9-0.2-1.4-0.4c-0.6-0.2-1.1-0.3-1.7-0.5c-0.5-0.1-0.9-0.3-1.4-0.4c-0.6-0.2-1.1-0.4-1.7-0.6c-0.5-0.2-0.9-0.3-1.3-0.5
			c-0.5-0.2-1.1-0.4-1.6-0.6c-0.4-0.2-0.9-0.4-1.3-0.6c-0.5-0.2-1.1-0.5-1.6-0.7c-0.4-0.2-0.9-0.4-1.3-0.6c-0.5-0.3-1-0.5-1.5-0.8
			c-0.4-0.2-0.8-0.4-1.2-0.7c-0.5-0.3-1-0.6-1.5-0.9c-0.4-0.2-0.8-0.5-1.2-0.7c-0.5-0.3-1-0.6-1.5-1c-0.4-0.3-0.8-0.5-1.1-0.8
			c-0.5-0.3-1-0.7-1.4-1c-0.4-0.3-0.7-0.5-1.1-0.8c-0.5-0.4-0.9-0.7-1.4-1.1c-0.3-0.3-0.7-0.5-1-0.8c-0.5-0.4-0.9-0.8-1.4-1.2
			c-0.3-0.3-0.6-0.6-0.9-0.8c-0.5-0.4-0.9-0.9-1.4-1.3c-0.3-0.3-0.6-0.5-0.8-0.8c-0.5-0.5-1-1-1.4-1.5c-0.2-0.3-0.5-0.5-0.7-0.8
			c-0.6-0.6-1.1-1.2-1.6-1.9c-0.1-0.2-0.3-0.3-0.4-0.5c-1.3-1.6-2.6-3.3-3.8-5c-0.2-0.2-0.3-0.5-0.5-0.7c-0.4-0.6-0.8-1.3-1.2-1.9
			c-0.2-0.3-0.4-0.6-0.6-1c-0.3-0.6-0.7-1.2-1-1.8c-0.2-0.4-0.4-0.7-0.6-1.1c-0.3-0.6-0.6-1.1-0.9-1.7c-0.2-0.4-0.4-0.8-0.6-1.2
			c-0.3-0.6-0.5-1.1-0.8-1.7c-0.2-0.4-0.3-0.8-0.5-1.3c-0.2-0.6-0.5-1.1-0.7-1.7c-0.2-0.4-0.3-0.9-0.5-1.3c-0.2-0.6-0.4-1.1-0.6-1.7
			c-0.1-0.4-0.3-0.9-0.4-1.4c-0.2-0.6-0.3-1.1-0.5-1.7c-0.1-0.5-0.2-0.9-0.4-1.4c-0.1-0.6-0.3-1.1-0.4-1.7c-0.1-0.5-0.2-1-0.3-1.4
			c-0.1-0.6-0.2-1.2-0.3-1.7c-0.1-0.5-0.2-1-0.2-1.5c-0.1-0.6-0.2-1.2-0.2-1.8c-0.1-0.5-0.1-1-0.2-1.5c0-0.2,0-0.5-0.1-0.7h11.1
			C66,150,89.7,171.9,118.4,171.9z M164.4,85.7c-10.2-15.3-27.2-24.6-46-24.6C89.7,61.1,66,83,63.2,111H52.1c0-0.2,0-0.5,0.1-0.7
			c0-0.5,0.1-1,0.2-1.5c0.1-0.6,0.1-1.2,0.2-1.8c0.1-0.5,0.1-1,0.2-1.5c0.1-0.6,0.2-1.2,0.3-1.7c0.1-0.5,0.2-1,0.3-1.4
			c0.1-0.6,0.3-1.2,0.4-1.7c0.1-0.5,0.2-0.9,0.4-1.4c0.2-0.6,0.3-1.1,0.5-1.7c0.1-0.5,0.3-0.9,0.4-1.4c0.2-0.6,0.4-1.1,0.6-1.7
			c0.2-0.4,0.3-0.9,0.5-1.3c0.2-0.6,0.4-1.1,0.7-1.7c0.2-0.4,0.3-0.8,0.5-1.3c0.2-0.6,0.5-1.1,0.8-1.7c0.2-0.4,0.4-0.8,0.6-1.2
			c0.3-0.6,0.6-1.1,0.9-1.7c0.2-0.4,0.4-0.7,0.6-1.1c0.3-0.6,0.7-1.2,1-1.8c0.2-0.3,0.4-0.6,0.6-1c0.4-0.6,0.8-1.3,1.2-1.9
			c0.2-0.2,0.3-0.5,0.5-0.7c1.2-1.7,2.4-3.4,3.8-5c0.1-0.2,0.3-0.3,0.4-0.5c0.5-0.6,1.1-1.3,1.6-1.9c0.2-0.3,0.5-0.5,0.7-0.8
			c0.5-0.5,0.9-1,1.4-1.5c0.3-0.3,0.6-0.5,0.9-0.8c0.5-0.4,0.9-0.9,1.4-1.3c0.3-0.3,0.6-0.6,1-0.8c0.5-0.4,0.9-0.8,1.4-1.2
			c0.3-0.3,0.7-0.5,1-0.8c0.5-0.4,0.9-0.8,1.4-1.1c0.4-0.3,0.7-0.5,1.1-0.8c0.5-0.3,1-0.7,1.4-1c0.4-0.3,0.8-0.5,1.1-0.8
			c0.5-0.3,1-0.6,1.5-0.9c0.4-0.2,0.8-0.5,1.2-0.7c0.5-0.3,1-0.6,1.5-0.9c0.4-0.2,0.8-0.5,1.2-0.7c0.5-0.3,1-0.5,1.5-0.8
			c0.4-0.2,0.8-0.4,1.3-0.6c0.5-0.2,1.1-0.5,1.6-0.7c0.4-0.2,0.9-0.4,1.3-0.6c0.5-0.2,1.1-0.4,1.6-0.6c0.4-0.2,0.9-0.3,1.3-0.5
			c0.6-0.2,1.1-0.4,1.7-0.6c0.5-0.1,0.9-0.3,1.4-0.4c0.6-0.2,1.1-0.3,1.7-0.5c0.5-0.1,0.9-0.3,1.4-0.4c0.6-0.1,1.2-0.3,1.8-0.4
			c0.5-0.1,0.9-0.2,1.4-0.3c0.6-0.1,1.2-0.2,1.8-0.3c0.5-0.1,0.9-0.2,1.4-0.2c0.6-0.1,1.3-0.2,2-0.2c0.4-0.1,0.9-0.1,1.3-0.2
			c0.7-0.1,1.5-0.1,2.2-0.2c0.4,0,0.7-0.1,1.1-0.1c1.1-0.1,2.2-0.1,3.3-0.1c1.4,0,2.8,0,4.2,0.1c0.5,0,0.9,0.1,1.4,0.1
			c0.9,0.1,1.8,0.2,2.8,0.3c0.5,0.1,1.1,0.2,1.6,0.2c0.8,0.1,1.6,0.2,2.5,0.4c0.6,0.1,1.1,0.2,1.7,0.4c0.8,0.2,1.5,0.3,2.3,0.5
			c0.6,0.1,1.1,0.3,1.7,0.5c0.7,0.2,1.5,0.4,2.2,0.6c0.6,0.2,1.1,0.4,1.7,0.6c0.7,0.2,1.4,0.5,2.1,0.8c0.6,0.2,1.1,0.4,1.7,0.7
			c0.7,0.3,1.4,0.6,2.1,0.9c0.5,0.2,1.1,0.5,1.6,0.8c0.7,0.3,1.3,0.7,2,1c0.5,0.3,1.1,0.6,1.6,0.9c0.7,0.4,1.3,0.8,1.9,1.2
			c0.5,0.3,1,0.6,1.5,1c0.6,0.4,1.3,0.9,1.9,1.3c0.5,0.3,1,0.7,1.4,1c0.6,0.5,1.2,0.9,1.8,1.4c0.5,0.4,0.9,0.7,1.4,1.1
			c0.6,0.5,1.2,1,1.8,1.6c0.4,0.4,0.8,0.8,1.3,1.1c0.6,0.6,1.2,1.2,1.7,1.8c0.4,0.4,0.8,0.8,1.1,1.2c0.6,0.7,1.2,1.4,1.8,2.1
			c0.3,0.3,0.6,0.7,0.9,1c0.9,1.1,1.7,2.2,2.5,3.3L164.4,85.7z M118.4,27.8c27.3,0,53.1,12.7,69.8,34.1l-8,8
			c-0.4-0.5-0.7-0.9-1.1-1.4c-0.4-0.5-0.8-1.1-1.3-1.6c-0.6-0.7-1.2-1.4-1.9-2.1c-0.4-0.5-0.8-1-1.3-1.4c-0.7-0.7-1.4-1.5-2.1-2.2
			c-0.4-0.4-0.8-0.8-1.2-1.2c-0.9-0.9-1.9-1.7-2.9-2.6c-0.2-0.2-0.4-0.4-0.6-0.6c-1.2-1-2.4-2-3.7-2.9c-0.4-0.3-0.7-0.5-1.1-0.8
			c-0.9-0.6-1.8-1.3-2.7-1.9c-0.5-0.3-1-0.6-1.5-0.9c-0.8-0.5-1.6-1-2.5-1.5c-0.6-0.3-1.1-0.6-1.7-0.9c-0.8-0.4-1.6-0.8-2.4-1.2
			c-0.6-0.3-1.2-0.6-1.8-0.8c-0.8-0.4-1.6-0.7-2.4-1.1c-0.6-0.3-1.3-0.5-1.9-0.7c-0.8-0.3-1.7-0.6-2.5-0.9c-0.6-0.2-1.3-0.4-1.9-0.6
			c-0.9-0.3-1.7-0.5-2.6-0.8c-0.7-0.2-1.3-0.4-2-0.5c-0.9-0.2-1.8-0.4-2.7-0.6c-0.6-0.1-1.3-0.3-1.9-0.4c-0.9-0.2-1.9-0.3-2.8-0.5
			c-0.6-0.1-1.2-0.2-1.9-0.3c-1.1-0.1-2.1-0.2-3.2-0.3c-0.5,0-1-0.1-1.6-0.1c-1.6-0.1-3.2-0.2-4.8-0.2c-1.3,0-2.6,0-3.9,0.1
			c-0.4,0-0.9,0.1-1.3,0.1c-0.9,0.1-1.7,0.1-2.6,0.2c-0.5,0.1-1,0.1-1.5,0.2c-0.8,0.1-1.5,0.2-2.3,0.3c-0.5,0.1-1.1,0.2-1.6,0.3
			c-0.7,0.1-1.4,0.2-2.1,0.4c-0.6,0.1-1.1,0.2-1.6,0.4c-0.7,0.2-1.4,0.3-2,0.5c-0.6,0.1-1.1,0.3-1.7,0.4c-0.7,0.2-1.3,0.4-2,0.6
			c-0.6,0.2-1.1,0.4-1.6,0.5c-0.6,0.2-1.3,0.4-1.9,0.6c-0.5,0.2-1.1,0.4-1.6,0.6c-0.6,0.2-1.2,0.5-1.8,0.7c-0.5,0.2-1.1,0.5-1.6,0.7
			c-0.6,0.3-1.2,0.5-1.8,0.8c-0.5,0.2-1,0.5-1.6,0.8c-0.6,0.3-1.2,0.6-1.7,0.9c-0.5,0.3-1,0.6-1.5,0.8c-0.6,0.3-1.1,0.6-1.7,1
			c-0.5,0.3-1,0.6-1.5,0.9c-0.5,0.3-1.1,0.7-1.6,1c-0.5,0.3-1,0.6-1.4,1c-0.5,0.4-1,0.7-1.6,1.1c-0.5,0.3-0.9,0.7-1.4,1
			c-0.5,0.4-1,0.8-1.5,1.2c-0.5,0.4-0.9,0.7-1.3,1.1c-0.5,0.4-1,0.8-1.4,1.3c-0.4,0.4-0.9,0.8-1.3,1.2c-0.5,0.4-0.9,0.9-1.4,1.3
			c-0.4,0.4-0.8,0.8-1.2,1.2c-0.5,0.5-0.9,0.9-1.3,1.4c-0.4,0.4-0.8,0.8-1.2,1.2c-0.4,0.5-0.9,1-1.3,1.5c-0.4,0.4-0.7,0.8-1.1,1.3
			c-0.4,0.5-0.8,1-1.2,1.6c-0.3,0.4-0.7,0.9-1,1.3c-0.4,0.6-0.8,1.1-1.2,1.7c-0.3,0.4-0.6,0.9-0.9,1.3c-0.4,0.6-0.8,1.3-1.2,1.9
			c-0.3,0.4-0.5,0.8-0.8,1.2c-0.5,0.9-1,1.7-1.5,2.6c-0.1,0.2-0.2,0.4-0.3,0.5c-0.6,1.1-1.1,2.2-1.7,3.3c-0.2,0.4-0.4,0.8-0.5,1.2
			c-0.3,0.7-0.7,1.4-1,2.2c-0.2,0.5-0.4,0.9-0.6,1.4c-0.3,0.7-0.5,1.3-0.8,2c-0.2,0.5-0.4,1-0.5,1.5c-0.2,0.7-0.5,1.3-0.7,2
			c-0.2,0.5-0.3,1.1-0.5,1.6c-0.2,0.7-0.4,1.3-0.6,2c-0.1,0.5-0.3,1.1-0.4,1.7c-0.2,0.7-0.3,1.3-0.5,2c-0.1,0.6-0.2,1.1-0.3,1.7
			c-0.1,0.7-0.3,1.3-0.4,2c-0.1,0.6-0.2,1.2-0.2,1.7c-0.1,0.7-0.2,1.4-0.3,2.1c-0.1,0.6-0.1,1.2-0.2,1.8c0,0.4-0.1,0.9-0.1,1.3H29.8
			C32.7,64.6,71.3,27.8,118.4,27.8z M180.3,163.1l8,8c-16.8,21.4-42.5,34.1-69.8,34.1c-47.1,0-85.7-36.8-88.5-83.2H41
			c0,0.4,0.1,0.9,0.1,1.3c0.1,0.6,0.1,1.2,0.2,1.8c0.1,0.7,0.2,1.4,0.3,2.1c0.1,0.6,0.2,1.2,0.2,1.7c0.1,0.7,0.2,1.4,0.4,2
			c0.1,0.6,0.2,1.1,0.3,1.7c0.1,0.7,0.3,1.3,0.5,2c0.1,0.5,0.3,1.1,0.4,1.6c0.2,0.7,0.4,1.3,0.6,2c0.2,0.5,0.3,1.1,0.5,1.6
			c0.2,0.7,0.5,1.3,0.7,2c0.2,0.5,0.3,1,0.5,1.5c0.3,0.7,0.5,1.4,0.8,2.1c0.2,0.5,0.4,0.9,0.6,1.4c0.3,0.8,0.7,1.5,1,2.2
			c0.2,0.4,0.3,0.8,0.5,1.1c0.5,1.1,1.1,2.2,1.7,3.3c0.1,0.1,0.2,0.3,0.2,0.4c0.5,0.9,1,1.8,1.6,2.8c0.2,0.4,0.5,0.8,0.7,1.1
			c0.4,0.7,0.8,1.3,1.3,2c0.3,0.4,0.6,0.8,0.9,1.3c0.4,0.6,0.8,1.2,1.2,1.7c0.3,0.4,0.7,0.8,1,1.3c0.4,0.5,0.8,1.1,1.3,1.6
			c0.3,0.4,0.7,0.8,1.1,1.3c0.4,0.5,0.9,1,1.3,1.5c0.4,0.4,0.8,0.8,1.1,1.2c0.4,0.5,0.9,1,1.4,1.4c0.4,0.4,0.8,0.8,1.2,1.2
			c0.5,0.5,0.9,0.9,1.4,1.3c0.4,0.4,0.8,0.8,1.3,1.1c0.5,0.4,1,0.9,1.5,1.3c0.4,0.4,0.9,0.7,1.3,1.1c0.5,0.4,1,0.8,1.5,1.2
			c0.5,0.3,0.9,0.7,1.4,1c0.5,0.4,1,0.8,1.6,1.1c0.5,0.3,0.9,0.6,1.4,1c0.5,0.4,1.1,0.7,1.6,1c0.5,0.3,1,0.6,1.5,0.9
			c0.6,0.3,1.1,0.7,1.7,1c0.5,0.3,1,0.6,1.5,0.8c0.6,0.3,1.2,0.6,1.7,0.9c0.5,0.3,1,0.5,1.6,0.8c0.6,0.3,1.2,0.5,1.8,0.8
			c0.5,0.2,1.1,0.5,1.6,0.7c0.6,0.3,1.2,0.5,1.8,0.7c0.5,0.2,1.1,0.4,1.6,0.6c0.6,0.2,1.3,0.4,1.9,0.6c0.5,0.2,1.1,0.4,1.6,0.5
			c0.7,0.2,1.3,0.4,2,0.6c0.5,0.2,1.1,0.3,1.6,0.4c0.7,0.2,1.4,0.3,2,0.5c0.5,0.1,1.1,0.3,1.6,0.4c0.7,0.1,1.4,0.3,2.1,0.4
			c0.5,0.1,1.1,0.2,1.6,0.3c0.8,0.1,1.5,0.2,2.3,0.3c0.5,0.1,1,0.1,1.5,0.2c0.8,0.1,1.7,0.1,2.6,0.2c0.4,0,0.9,0.1,1.3,0.1
			c1.3,0.1,2.6,0.1,3.9,0.1c1.6,0,3.2-0.1,4.8-0.2c0.5,0,1.1-0.1,1.6-0.1c1.1-0.1,2.1-0.2,3.2-0.3c0.6-0.1,1.2-0.2,1.9-0.3
			c0.9-0.1,1.9-0.3,2.8-0.5c0.7-0.1,1.3-0.3,1.9-0.4c0.9-0.2,1.8-0.4,2.7-0.6c0.7-0.2,1.3-0.3,2-0.5c0.9-0.2,1.7-0.5,2.6-0.8
			c0.6-0.2,1.3-0.4,1.9-0.6c0.8-0.3,1.7-0.6,2.5-0.9c0.6-0.2,1.3-0.5,1.9-0.7c0.8-0.3,1.6-0.7,2.4-1.1c0.6-0.3,1.2-0.5,1.8-0.8
			c0.8-0.4,1.6-0.8,2.4-1.2c0.6-0.3,1.1-0.6,1.7-0.9c0.8-0.5,1.7-1,2.5-1.5c0.5-0.3,1-0.6,1.5-0.9c0.9-0.6,1.8-1.2,2.7-1.9
			c0.4-0.3,0.8-0.5,1.1-0.8c1.3-0.9,2.5-1.9,3.7-2.9c0.2-0.2,0.4-0.4,0.6-0.6c1-0.8,1.9-1.7,2.9-2.6c0.4-0.4,0.8-0.8,1.2-1.2
			c0.7-0.7,1.4-1.4,2.1-2.2c0.4-0.5,0.8-0.9,1.3-1.4c0.6-0.7,1.3-1.4,1.9-2.1c0.4-0.5,0.8-1,1.3-1.6
			C179.5,164.1,179.9,163.6,180.3,163.1z"/>
		<path class="st1" d="M121.6,160.8c4.3-0.2,8.3-1.1,12-2.6C129.8,159.6,125.8,160.5,121.6,160.8z"/>
		<path class="st1" d="M134.1,158C134.1,158,134.1,158,134.1,158C134.1,158,134.1,158,134.1,158z"/>
		<path class="st1" d="M135.1,75.3C135.1,75.3,135.2,75.4,135.1,75.3C135.2,75.4,135.1,75.3,135.1,75.3z"/>
	</g>
</g>
</svg>
