<svg xmlns="http://www.w3.org/2000/svg" height="1024" version="1.1" viewBox="0 0 1024 1024" width="1024"><style>.style0{fill:	#000000;}.style1{fill:	#FFFC00;}.style2{fill:	#FFFFFF;}</style><path d="M519.13 180.79c27.04 0 54.4 5.9 79.1 16.94c40.83 18.3 74.2 52.9 90.7 94.6c9.45 23.9 9.7 51.4 9.5 76.72c-0.13 14.61-0.82 29.2-1.66 43.78c-0.43 7.33-0.89 14.65-1.35 21.98c-0.25 4.02-0.5 8.04-0.74 12.06c-0.15 2.59-1.05 6.09-0.48 8.64c1.25 5.6 10.2 9.3 15.1 10.9c12.97 4.1 26.5 1.1 39.01-3.31c7.44-2.65 14.14-7.09 22.3-6.34c5.91 0.5 12.8 3.2 17 7.46c4.42 4.5 3.5 8.94-0.31 13.25c-7.22 8.19-19.14 12.85-29.22 16.17c-11.04 3.63-22.24 6.86-32.53 12.39c-10.14 5.45-19.5 13.29-23.5 24.42c-4.65 12.94-0.77 26.1 4.7 38.08c9.29 20.4 21.4 39.4 35.5 56.78c26.38 32.5 60.9 58.8 101.3 70.8c5.94 1.8 12 3.2 18.1 4.36c2.58 0.5 4.25-0.11 3.3 2.64c-0.12 0.35-0.36 0.68-0.54 0.99c-1.35 2.26-3.56 4.07-5.66 5.6c-11.92 8.72-27.62 12.73-41.7 16.18c-6.66 1.64-13.38 3.05-20.12 4.32c-6.7 1.26-14.86 1.29-21.12 4.01c-10.45 4.53-12.01 20.12-14.14 29.74c-0.83 3.76-1.69 7.51-2.69 11.23c-0.89 3.3-0.62 4.99-4.14 5.04c-6.04 0.1-12.12-1.5-18.02-2.59c-13.89-2.56-27.98-3.93-42.11-3.59c-15.44 0.37-31.21 2.15-45.56 8.12c-13.73 5.72-26.01 14.35-38.1 22.88c-21.13 14.91-42.59 29.7-68.27 35.39c-12.87 2.85-26.18 3.15-39.31 2.73c-14-0.45-27.79-3.36-40.78-8.57c-24.77-9.94-44.92-27.53-67.27-41.61c-12.7-8-26.19-14.34-41.11-16.68c-15.83-2.49-31.92-2.99-47.86-1.29c-6.19 0.66-12.33 1.64-18.45 2.79c-5.99 1.12-12.47 3.24-18.6 3c-2.89-0.12-2.92-0.99-3.69-3.7c-1.13-4.03-2.06-8.11-2.96-12.2c-1.38-6.25-2.54-12.65-4.79-18.66c-1.76-4.7-4.36-9.49-9.07-11.76c-6.02-2.9-14.26-2.84-20.8-4.07c-12.18-2.28-24.33-4.98-36.16-8.72c-10.16-3.21-22.41-7.12-30.06-15.04c-0.73-0.75-1.45-1.55-1.99-2.45c-0.18-0.29-0.43-0.61-0.53-0.94c-0.83-2.55 0.16-2.2 2.65-2.66c11.77-2.16 23.31-5.49 34.41-9.95c20.32-8.14 39.02-19.98 55.57-34.27c24.28-20.95 44.38-47.03 59.37-75.35c5.12-9.68 10.62-20.27 12.35-31.08c4.35-27.14-17.99-42.5-40.51-50.69c-11.96-4.35-24.29-7.33-35.45-13.67c-5.09-2.89-14.98-8.66-14.21-15.87c0.58-5.48 7.36-9.18 11.89-10.88c3.07-1.15 6.44-1.9 9.74-1.72c3.97 0.2 7.4 2.3 11 3.8c13.15 5.4 27.9 9.2 42.1 7.01c7.14-1.11 14.54-3.82 19.69-9.08c1.24-1.27 1.7-1.8 1.98-3.34c0.51-2.84-0.37-6.63-0.53-9.47c-0.45-7.58-0.94-15.16-1.41-22.74c-1.79-28.91-3.52-58.05-1.37-86.99c0.92-12.41 2.54-24.93 6.16-36.87c3.6-11.86 9.63-23.12 16.09-33.65c11.91-19.4 27.38-36.53 45.81-49.93c27.01-19.65 59.62-30.92 92.76-34.08C497.89 180.8 508.5 180.8 519.1 180.79M0 860.16C0 950.6 73.4 1024 163.8 1024L860.16 1024C950.64 1024 1024 950.6 1024 860.16L1024 163.84C1024 73.4 950.6 0 860.2 0L163.84 0C73.36 0 0 73.4 0 163.84L0 860.2" class="style0"/><path d="M19.2 163.84C19.2 84 84 19.2 163.8 19.2L860.16 19.2C940.03 19.2 1004.8 84 1004.8 163.84L1004.8 860.16C1004.8 940 940 1004.8 860.2 1004.8L163.84 1004.8C83.97 1004.8 19.2 940 19.2 860.16L19.2 163.84M519.13 165.5c-24.47 0.11-48.23 1.61-71.93 8.33c-37.79 10.72-71.88 32.26-96.65 62.9c-15.35 18.98-28.69 41.56-34.43 65.45c-6.39 26.62-6.34 54.7-5.5 81.9c0.44 14.4 1.3 28.7 2.2 43.07c0.22 3.5 0.4 6.9 0.7 10.39c0.15 2.3 1.8 11.2 0.5 12.75c-2.9 3.3-12.12 3.07-15.87 2.93c-6.73-0.25-13.37-1.85-19.72-4.01c-6.93-2.36-13.48-6.55-20.87-7.27c-11.58-1.12-24.4 3.68-32.39 12.13c-13.58 14.37-4.97 31.3 9.1 41.07c11.32 7.9 24.3 12 37.2 16.24c10.71 3.5 22.5 7.6 30.7 15.7c11.93 11.8 5.2 27.44-1.05 40.38c-4.91 10.08-10.64 19.77-16.89 29.08c-21.29 31.68-49.68 59.53-84.47 75.94c-10.48 4.94-21.46 8.8-32.75 11.44c-5.54 1.3-12.28 1.38-17.04 4.74c-5.18 3.66-7.31 9.98-6.09 16.1c3.11 15.6 21.8 23.7 35 28.6c11.63 4.3 23.7 7.4 35.9 9.95c7.39 1.6 14.8 2.9 22.3 4.14c3.64 0.6 5.3 0.3 6.6 3.87c1.03 2.7 1.7 5.6 2.4 8.41c1.66 7 3 14 4.9 20.85c1.25 4.5 2.9 8.8 6.7 11.82c9.86 7.8 25.5 1.8 36.42-0.18c29.26-5.2 61.15-5.02 87.5 10.14c22.89 13.2 42.6 31 66.6 42.44c25.47 12.2 53.6 15.7 81.6 13.09c26.21-2.44 49.91-13.2 71.66-27.55c23.75-15.67 45.59-35.56 74.78-39.52c15.89-2.15 31.99-2.03 47.9 0.18c11 1.5 22.4 5.4 33.6 4.4c15.17-1.33 16.76-17.84 19.39-29.79c1.06-4.81 1.54-12 4.42-16.12c1.69-2.42 6.45-2.17 9.36-2.66c4.07-0.69 8.13-1.43 12.19-2.22c21.26-4.15 44.79-9.04 63.07-21.36c5.29-3.57 10.34-8.12 12.97-14.06c2.47-5.58 2.55-12.06-1.17-17.11c-3.89-5.29-9.58-5.88-15.55-7.08c-22.27-4.48-43.35-13.73-62.09-26.51c-28.72-19.58-52.02-46.83-69.39-76.79c-3.62-6.24-6.91-12.63-9.92-19.19c-4.64-10.12-8.83-22.09-1.61-32.1c6.65-9.22 18.67-13.85 29-17.48c12.7-4.46 25.55-7.94 37.24-14.86c8.53-5.05 17.49-12.19 19.94-22.31c6.42-26.59-31.59-40.05-51.35-31.56c-12.2 5.24-27.02 11.96-40.46 7.51c-0.87-0.29-2.4-0.57-3.04-1.23c-1.08-1.11-0.51-2.89-0.41-4.61c0.23-3.89 0.48-7.78 0.72-11.68c0.37-6.02 0.76-12.04 1.12-18.06c1.68-28.46 3.05-57.18 0.46-85.63c-1.15-12.64-3.08-25.33-6.96-37.44c-3.78-11.81-9.71-23.07-16.08-33.68c-11.86-19.77-27.09-37.47-45.22-51.74c-27.29-21.48-60.44-34.66-94.68-39.78C539.38 166.3 529.2 165.5 519.1 165.5M220.88 45.66A16.43 16.4 0 0 0 220.9 78.52A16.43 16.4 0 0 0 220.9 45.66M273.81 45.66A16.43 16.4 0 0 0 273.8 78.52A16.43 16.4 0 0 0 273.8 45.66M379.67 45.66A16.43 16.4 0 0 0 379.7 78.52A16.43 16.4 0 0 0 379.7 45.66M538.47 45.66A16.43 16.4 0 0 0 538.5 78.52A16.43 16.4 0 0 0 538.5 45.66M644.33 45.66A16.43 16.4 0 0 0 644.3 78.52A16.43 16.4 0 0 0 644.3 45.66M803.12 45.66A16.43 16.4 0 0 0 803.1 78.52A16.43 16.4 0 0 0 803.1 45.66M115.02 98.59A16.43 16.4 0 0 0 115 131.45A16.43 16.4 0 0 0 115 98.59M326.74 98.59A16.43 16.4 0 0 0 326.7 131.45A16.43 16.4 0 0 0 326.7 98.59M485.53 98.59A16.43 16.4 0 0 0 485.5 131.45A16.43 16.4 0 0 0 485.5 98.59M538.47 98.59A16.43 16.4 0 0 0 538.5 131.45A16.43 16.4 0 0 0 538.5 98.59M697.26 98.59A16.43 16.4 0 0 0 697.3 131.45A16.43 16.4 0 0 0 697.3 98.59M750.19 98.59A16.43 16.4 0 0 0 750.2 131.45A16.43 16.4 0 0 0 750.2 98.59M803.12 98.59A16.43 16.4 0 0 0 803.1 131.45A16.43 16.4 0 0 0 803.1 98.59M856.05 98.59A16.43 16.4 0 0 0 856 131.45A16.43 16.4 0 0 0 856 98.59M908.98 98.59A16.43 16.4 0 0 0 909 131.45A16.43 16.4 0 0 0 909 98.59M697.26 151.52A16.43 16.4 0 0 0 697.3 184.38A16.43 16.4 0 0 0 697.3 151.52M750.19 151.52A16.43 16.4 0 0 0 750.2 184.38A16.43 16.4 0 0 0 750.2 151.52M856.05 151.52A16.43 16.4 0 0 0 856 184.38A16.43 16.4 0 0 0 856 151.52M908.98 151.52A16.43 16.4 0 0 0 909 184.38A16.43 16.4 0 0 0 909 151.52M115.02 204.45A16.43 16.4 0 0 0 115 237.31A16.43 16.4 0 0 0 115 204.45M273.81 204.45A16.43 16.4 0 0 0 273.8 237.31A16.43 16.4 0 0 0 273.8 204.45M750.19 204.45A16.43 16.4 0 0 0 750.2 237.31A16.43 16.4 0 0 0 750.2 204.45M856.05 204.45A16.43 16.4 0 0 0 856 237.31A16.43 16.4 0 0 0 856 204.45M961.91 204.45A16.43 16.4 0 0 0 961.9 237.31A16.43 16.4 0 0 0 961.9 204.45M220.88 257.38A16.43 16.4 0 0 0 220.9 290.24A16.43 16.4 0 0 0 220.9 257.38M803.12 257.38A16.43 16.4 0 0 0 803.1 290.24A16.43 16.4 0 0 0 803.1 257.38M908.98 257.38A16.43 16.4 0 0 0 909 290.24A16.43 16.4 0 0 0 909 257.38M115.02 310.31A16.43 16.4 0 0 0 115 343.17A16.43 16.4 0 0 0 115 310.31M167.95 310.31A16.43 16.4 0 0 0 167.9 343.17A16.43 16.4 0 0 0 167.9 310.31M273.81 310.31A16.43 16.4 0 0 0 273.8 343.17A16.43 16.4 0 0 0 273.8 310.31M750.19 310.31A16.43 16.4 0 0 0 750.2 343.17A16.43 16.4 0 0 0 750.2 310.31M803.12 310.31A16.43 16.4 0 0 0 803.1 343.17A16.43 16.4 0 0 0 803.1 310.31M908.98 310.31A16.43 16.4 0 0 0 909 343.17A16.43 16.4 0 0 0 909 310.31M961.91 310.31A16.43 16.4 0 0 0 961.9 343.17A16.43 16.4 0 0 0 961.9 310.31M115.02 363.24A16.43 16.4 0 0 0 115 396.1A16.43 16.4 0 0 0 115 363.24M167.95 363.24A16.43 16.4 0 0 0 167.9 396.1A16.43 16.4 0 0 0 167.9 363.24M273.81 363.24A16.43 16.4 0 0 0 273.8 396.1A16.43 16.4 0 0 0 273.8 363.24M856.05 363.24A16.43 16.4 0 0 0 856 396.1A16.43 16.4 0 0 0 856 363.24M908.98 416.17A16.43 16.4 0 0 0 909 449.03A16.43 16.4 0 0 0 909 416.17M961.91 416.17A16.43 16.4 0 0 0 961.9 449.03A16.43 16.4 0 0 0 961.9 416.17M62.09 469.1A16.43 16.4 0 0 0 62.1 501.96A16.43 16.4 0 0 0 62.1 469.1M167.95 469.1A16.43 16.4 0 0 0 167.9 501.96A16.43 16.4 0 0 0 167.9 469.1M856.05 469.1A16.43 16.4 0 0 0 856 501.96A16.43 16.4 0 0 0 856 469.1M908.98 469.1A16.43 16.4 0 0 0 909 501.96A16.43 16.4 0 0 0 909 469.1M62.09 522.04A16.43 16.4 0 0 0 62.1 554.9A16.43 16.4 0 0 0 62.1 522.04M220.88 522.04A16.43 16.4 0 0 0 220.9 554.9A16.43 16.4 0 0 0 220.9 522.04M803.12 522.04A16.43 16.4 0 0 0 803.1 554.9A16.43 16.4 0 0 0 803.1 522.04M908.98 522.04A16.43 16.4 0 0 0 909 554.9A16.43 16.4 0 0 0 909 522.04M961.91 522.04A16.43 16.4 0 0 0 961.9 554.9A16.43 16.4 0 0 0 961.9 522.04M62.09 574.97A16.43 16.4 0 0 0 62.1 607.83A16.43 16.4 0 0 0 62.1 574.97M115.02 574.97A16.43 16.4 0 0 0 115 607.83A16.43 16.4 0 0 0 115 574.97M167.95 574.97A16.43 16.4 0 0 0 167.9 607.83A16.43 16.4 0 0 0 167.9 574.97M908.98 574.97A16.43 16.4 0 0 0 909 607.83A16.43 16.4 0 0 0 909 574.97M115.02 627.9A16.43 16.4 0 0 0 115 660.76A16.43 16.4 0 0 0 115 627.9M167.95 627.9A16.43 16.4 0 0 0 167.9 660.76A16.43 16.4 0 0 0 167.9 627.9M856.05 627.9A16.43 16.4 0 0 0 856 660.76A16.43 16.4 0 0 0 856 627.9M62.09 680.83A16.43 16.4 0 0 0 62.1 713.69A16.43 16.4 0 0 0 62.1 680.83M115.02 680.83A16.43 16.4 0 0 0 115 713.69A16.43 16.4 0 0 0 115 680.83M908.98 680.83A16.43 16.4 0 0 0 909 713.69A16.43 16.4 0 0 0 909 680.83M62.09 733.76A16.43 16.4 0 0 0 62.1 766.62A16.43 16.4 0 0 0 62.1 733.76M115.02 733.76A16.43 16.4 0 0 0 115 766.62A16.43 16.4 0 0 0 115 733.76M961.91 733.76A16.43 16.4 0 0 0 961.9 766.62A16.43 16.4 0 0 0 961.9 733.76M167.95 786.69A16.43 16.4 0 0 0 167.9 819.55A16.43 16.4 0 0 0 167.9 786.69M803.12 786.69A16.43 16.4 0 0 0 803.1 819.55A16.43 16.4 0 0 0 803.1 786.69M115.02 839.62A16.43 16.4 0 0 0 115 872.48A16.43 16.4 0 0 0 115 839.62M167.95 839.62A16.43 16.4 0 0 0 167.9 872.48A16.43 16.4 0 0 0 167.9 839.62M220.88 839.62A16.43 16.4 0 0 0 220.9 872.48A16.43 16.4 0 0 0 220.9 839.62M273.81 839.62A16.43 16.4 0 0 0 273.8 872.48A16.43 16.4 0 0 0 273.8 839.62M326.74 839.62A16.43 16.4 0 0 0 326.7 872.48A16.43 16.4 0 0 0 326.7 839.62M750.19 839.62A16.43 16.4 0 0 0 750.2 872.48A16.43 16.4 0 0 0 750.2 839.62M908.98 839.62A16.43 16.4 0 0 0 909 872.48A16.43 16.4 0 0 0 909 839.62M167.95 892.55A16.43 16.4 0 0 0 167.9 925.41A16.43 16.4 0 0 0 167.9 892.55M326.74 892.55A16.43 16.4 0 0 0 326.7 925.41A16.43 16.4 0 0 0 326.7 892.55M644.33 892.55A16.43 16.4 0 0 0 644.3 925.41A16.43 16.4 0 0 0 644.3 892.55M803.12 892.55A16.43 16.4 0 0 0 803.1 925.41A16.43 16.4 0 0 0 803.1 892.55M856.05 892.55A16.43 16.4 0 0 0 856 925.41A16.43 16.4 0 0 0 856 892.55M908.98 892.55A16.43 16.4 0 0 0 909 925.41A16.43 16.4 0 0 0 909 892.55M220.88 945.48A16.43 16.4 0 0 0 220.9 978.34A16.43 16.4 0 0 0 220.9 945.48M326.74 945.48A16.43 16.4 0 0 0 326.7 978.34A16.43 16.4 0 0 0 326.7 945.48M379.67 945.48A16.43 16.4 0 0 0 379.7 978.34A16.43 16.4 0 0 0 379.7 945.48M432.6 945.48A16.43 16.4 0 0 0 432.6 978.34A16.43 16.4 0 0 0 432.6 945.48M538.47 945.48A16.43 16.4 0 0 0 538.5 978.34A16.43 16.4 0 0 0 538.5 945.48M591.4 945.48A16.43 16.4 0 0 0 591.4 978.34A16.43 16.4 0 0 0 591.4 945.48M644.33 945.48A16.43 16.4 0 0 0 644.3 978.34A16.43 16.4 0 0 0 644.3 945.48M750.19 945.48A16.43 16.4 0 0 0 750.2 978.34A16.43 16.4 0 0 0 750.2 945.5" class="style1"/><path d="M519.13 180.79c27.04 0 54.4 5.9 79.1 16.94c40.83 18.3 74.2 52.9 90.7 94.6c9.45 23.9 9.7 51.4 9.5 76.72c-0.13 14.61-0.82 29.2-1.66 43.78c-0.43 7.33-0.89 14.65-1.35 21.98c-0.25 4.02-0.5 8.04-0.74 12.06c-0.15 2.59-1.05 6.09-0.48 8.64c1.25 5.6 10.2 9.3 15.1 10.9c12.97 4.1 26.5 1.1 39.01-3.31c7.44-2.65 14.14-7.09 22.3-6.34c5.91 0.5 12.8 3.2 17 7.46c4.42 4.5 3.5 8.94-0.31 13.25c-7.22 8.19-19.14 12.85-29.22 16.17c-11.04 3.63-22.24 6.86-32.53 12.39c-10.14 5.45-19.5 13.29-23.5 24.42c-4.65 12.94-0.77 26.1 4.7 38.08c9.29 20.4 21.4 39.4 35.5 56.78c26.38 32.5 60.9 58.8 101.3 70.8c5.94 1.8 12 3.2 18.1 4.36c2.58 0.5 4.25-0.11 3.3 2.64c-0.12 0.35-0.36 0.68-0.54 0.99c-1.35 2.26-3.56 4.07-5.66 5.6c-11.92 8.72-27.62 12.73-41.7 16.18c-6.66 1.64-13.38 3.05-20.12 4.32c-6.7 1.26-14.86 1.29-21.12 4.01c-10.45 4.53-12.01 20.12-14.14 29.74c-0.83 3.76-1.69 7.51-2.69 11.23c-0.89 3.3-0.62 4.99-4.14 5.04c-6.04 0.1-12.12-1.5-18.02-2.59c-13.89-2.56-27.98-3.93-42.11-3.59c-15.44 0.37-31.21 2.15-45.56 8.12c-13.73 5.72-26.01 14.35-38.1 22.88c-21.13 14.91-42.59 29.7-68.27 35.39c-12.87 2.85-26.18 3.15-39.31 2.73c-14-0.45-27.79-3.36-40.78-8.57c-24.77-9.94-44.92-27.53-67.27-41.61c-12.7-8-26.19-14.34-41.11-16.68c-15.83-2.49-31.92-2.99-47.86-1.29c-6.19 0.66-12.33 1.64-18.45 2.79c-5.99 1.12-12.47 3.24-18.6 3c-2.89-0.12-2.92-0.99-3.69-3.7c-1.13-4.03-2.06-8.11-2.96-12.2c-1.38-6.25-2.54-12.65-4.79-18.66c-1.76-4.7-4.36-9.49-9.07-11.76c-6.02-2.9-14.26-2.84-20.8-4.07c-12.18-2.28-24.33-4.98-36.16-8.72c-10.16-3.21-22.41-7.12-30.06-15.04c-0.73-0.75-1.45-1.55-1.99-2.45c-0.18-0.29-0.43-0.61-0.53-0.94c-0.83-2.55 0.16-2.2 2.65-2.66c11.77-2.16 23.31-5.49 34.41-9.95c20.32-8.14 39.02-19.98 55.57-34.27c24.28-20.95 44.38-47.03 59.37-75.35c5.12-9.68 10.62-20.27 12.35-31.08c4.35-27.14-17.99-42.5-40.51-50.69c-11.96-4.35-24.29-7.33-35.45-13.67c-5.09-2.89-14.98-8.66-14.21-15.87c0.58-5.48 7.36-9.18 11.89-10.88c3.07-1.15 6.44-1.9 9.74-1.72c3.97 0.2 7.4 2.3 11 3.8c13.15 5.4 27.9 9.2 42.1 7.01c7.14-1.11 14.54-3.82 19.69-9.08c1.24-1.27 1.7-1.8 1.98-3.34c0.51-2.84-0.37-6.63-0.53-9.47c-0.45-7.58-0.94-15.16-1.41-22.74c-1.79-28.91-3.52-58.05-1.37-86.99c0.92-12.41 2.54-24.93 6.16-36.87c3.6-11.86 9.63-23.12 16.09-33.65c11.91-19.4 27.38-36.53 45.81-49.93c27.01-19.65 59.62-30.92 92.76-34.08C497.89 180.8 508.5 180.8 519.1 180.8" class="style2"/></svg>