<?xml version="1.0" encoding="utf-8"?>
<!-- Generator: Adobe Illustrator 19.0.0, SVG Export Plug-In . SVG Version: 6.00 Build 0)  -->
<!DOCTYPE svg PUBLIC "-//W3C//DTD SVG 1.1//EN" "http://www.w3.org/Graphics/SVG/1.1/DTD/svg11.dtd">
<svg version="1.1" id="Layer_1" xmlns="http://www.w3.org/2000/svg" xmlns:xlink="http://www.w3.org/1999/xlink" x="0px" y="0px"
	 viewBox="-99 -116 1024 1024" style="enable-background:new -99 -116 1024 1024;" xml:space="preserve">
<path style="fill: #fff;" d="M761.2-116H64.8C-25.6-116-99-42.6-99,47.8v696.3C-99,834.6-25.6,908,64.8,908h696.3c90.5,0,163.8-73.4,163.8-163.8V47.8
	C925-42.6,851.6-116,761.2-116z M574,194.1c-22.2,0-44.5,0.1-66.7,0c-14.1-0.9-28.6,9.8-31.1,23.8c-0.3,24.3-0.1,48.6-0.1,72.9
	c32.6,0.1,65.2,0,97.9,0.1c-2.4,35.1-6.7,70.1-11.9,105c-28.8,0.3-57.6,0-86.4,0.1c-0.3,103.6,0.1,207.3-0.2,310.9
	c-42.8,0.2-85.6-0.1-128.4,0.1c-0.8-103.7,0.1-207.4-0.4-311c-20.9-0.2-41.8,0.1-62.6-0.2c0.1-34.8,0-69.7,0-104.5
	c20.9-0.3,41.7,0.1,62.6-0.1c0.6-33.9-0.6-67.8,0.7-101.6c2.1-26.8,12.3-53.8,32.3-72.3c24.3-23.1,58.7-30.9,91.3-31.9
	c34.4-0.3,68.8-0.1,103.2-0.1C574.2,121.4,574.2,157.7,574,194.1z"/>
</svg>
