<?xml version="1.0" encoding="utf-8"?>
<!-- Generator: Adobe Illustrator 19.1.0, SVG Export Plug-In . SVG Version: 6.00 Build 0)  -->
<svg version="1.1" xmlns="http://www.w3.org/2000/svg" xmlns:xlink="http://www.w3.org/1999/xlink" x="0px" y="0px"
	 viewBox="206 -116 1024 1024" style="enable-background:new 206 -116 1024 1024;" xml:space="preserve">
<style type="text/css">
	.st0{display:none;}
	.st1{display:inline;}
	.st2{filter:url(#Adobe_OpacityMaskFilter);}
	.st3{mask:url(#SVGID_1_);fill:#FFFFFF;}
</style>
<g id="black" class="st0">
	<rect x="206" y="-116" class="st1" width="1024" height="1024"/>
</g>
<g id="snapchat_1_">
	<defs>
		<filter id="Adobe_OpacityMaskFilter" filterUnits="userSpaceOnUse" x="206" y="-116" width="1023.9" height="1024">
			<feFlood  style="flood-color:white;flood-opacity:1" result="back"/>
			<feBlend  in="SourceGraphic" in2="back" mode="normal"/>
		</filter>
	</defs>
	<mask maskUnits="userSpaceOnUse" x="206" y="-116" width="1023.9" height="1024" id="SVGID_1_">
		<g class="st2">
		</g>
	</mask>
	<path class="st3" d="M1066.2-116H369.8C279.4-116,206-42.6,206,47.8v696.3c0,90.5,73.4,163.9,163.8,163.9h696.3
		c90.5,0,163.8-73.4,163.8-163.8V47.8C1230-42.6,1156.6-116,1066.2-116z M513.4,121.5h405.1c38.5,0,70,31.5,70,70v405.1
		c0,38.5-31.5,70-70,70H513.4c-38.5,0-70-31.5-70-70V191.4C443.5,152.9,475,121.5,513.4,121.5L513.4,121.5z M840.5,182
		c-13.5,0-24.6,11.1-24.6,24.5v58.7c0,13.5,11.1,24.5,24.6,24.5h61.6c13.5,0,24.5-11,24.5-24.5v-58.7c0-13.5-11-24.5-24.5-24.5
		H840.5L840.5,182z M926.9,352h-48c4.5,14.8,7,30.5,7,46.8c0,90.7-75.9,164.2-169.4,164.2s-169.4-73.5-169.4-164.2
		c0-16.3,2.5-31.9,7-46.8h-50v230.2c0,11.9,9.8,21.7,21.7,21.7h379.5c11.9,0,21.7-9.7,21.7-21.7L926.9,352L926.9,352z M716.5,286.7
		c-60.4,0-109.5,47.5-109.5,106.1c0,58.6,49,106.1,109.5,106.1c60.5,0,109.5-47.5,109.5-106.1C826,334.2,777,286.7,716.5,286.7z"/>
</g>
<g id="insta" class="st0">
</g>
</svg>
