<?xml version="1.0" encoding="utf-8"?>
<!-- Generator: Adobe Illustrator 19.0.0, SVG Export Plug-In . SVG Version: 6.00 Build 0)  -->
<!DOCTYPE svg PUBLIC "-//W3C//DTD SVG 1.1//EN" "http://www.w3.org/Graphics/SVG/1.1/DTD/svg11.dtd">
<svg version="1.1" id="Layer_1" xmlns="http://www.w3.org/2000/svg" xmlns:xlink="http://www.w3.org/1999/xlink" x="0px" y="0px"
	 viewBox="-99 -116 1024 1024" style="enable-background:new -99 -116 1024 1024;" xml:space="preserve">
<path style="fill: #fff;" d="M761.2-116H64.8C-25.6-116-99-42.6-99,47.8v696.3C-99,834.6-25.6,908,64.8,908h696.3c90.5,0,163.8-73.4,163.8-163.8V47.8
	C925-42.6,851.6-116,761.2-116z M765.8,587.1c-0.1,0.3-0.4,0.7-0.5,1c-1.3,2.3-3.6,4.1-5.7,5.6c-11.9,8.7-27.6,12.7-41.7,16.2
	c-6.7,1.6-13.4,3-20.1,4.3c-6.7,1.3-14.9,1.3-21.1,4c-10.5,4.5-12,20.1-14.1,29.7c-0.8,3.8-1.7,7.5-2.7,11.2c-0.9,3.3-0.6,5-4.1,5
	c-6,0.1-12.1-1.5-18-2.6c-13.9-2.6-28-3.9-42.1-3.6c-15.4,0.4-31.2,2.2-45.6,8.1c-13.7,5.7-26,14.3-38.1,22.9
	c-21.1,14.9-42.6,29.7-68.3,35.4c-12.9,2.8-26.2,3.2-39.3,2.7c-14-0.5-27.8-3.4-40.8-8.6c-24.8-9.9-44.9-27.5-67.3-41.6
	c-12.7-8-26.2-14.3-41.1-16.7c-15.8-2.5-31.9-3-47.9-1.3c-6.2,0.7-12.3,1.6-18.5,2.8c-6,1.1-12.5,3.2-18.6,3c-2.9-0.1-2.9-1-3.7-3.7
	c-1.1-4-2.1-8.1-3-12.2c-1.4-6.2-2.5-12.7-4.8-18.7c-1.8-4.7-4.4-9.5-9.1-11.8c-6-2.9-14.3-2.8-20.8-4.1c-12.2-2.3-24.3-5-36.2-8.7
	c-10.2-3.2-22.4-7.1-30.1-15c-0.7-0.8-1.5-1.5-2-2.5c-0.2-0.3-0.4-0.6-0.5-0.9c-0.8-2.5,0.2-2.2,2.7-2.7c11.8-2.2,23.3-5.5,34.4-10
	c20.3-8.1,39-20,55.6-34.3c24.3-21,44.4-47,59.4-75.3c5.1-9.7,10.6-20.3,12.4-31.1c4.3-27.1-18-42.5-40.5-50.7
	c-12-4.4-24.3-7.3-35.5-13.7c-5.1-2.9-15-8.7-14.2-15.9c0.6-5.5,7.4-9.2,11.9-10.9c3.1-1.1,6.4-1.9,9.7-1.7c4,0.2,7.4,2.3,11,3.8
	c13.2,5.4,27.9,9.2,42.1,7c7.1-1.1,14.5-3.8,19.7-9.1c1.2-1.3,1.7-1.8,2-3.3c0.5-2.8-0.4-6.6-0.5-9.5c-0.5-7.6-0.9-15.2-1.4-22.7
	c-1.8-28.9-3.5-58-1.4-87c0.9-12.4,2.5-24.9,6.2-36.9c3.6-11.9,9.6-23.1,16.1-33.6c11.9-19.4,27.4-36.5,45.8-49.9
	c27-19.7,59.6-30.9,92.8-34.1c10.5-1,21.2-1,31.8-1c27,0,54.4,5.9,79.1,16.9c40.8,18.3,74.2,52.9,90.7,94.6
	c9.5,23.9,9.7,51.4,9.5,76.7c-0.1,14.6-0.8,29.2-1.7,43.8c-0.4,7.3-0.9,14.7-1.3,22c-0.2,4-0.5,8-0.7,12.1c-0.2,2.6-1,6.1-0.5,8.6
	c1.2,5.6,10.2,9.3,15.1,10.9c13,4.1,26.5,1.1,39-3.3c7.4-2.6,14.1-7.1,22.3-6.3c5.9,0.5,12.8,3.2,17,7.5c4.4,4.5,3.5,8.9-0.3,13.2
	c-7.2,8.2-19.1,12.9-29.2,16.2c-11,3.6-22.2,6.9-32.5,12.4c-10.1,5.5-19.5,13.3-23.5,24.4c-4.7,12.9-0.8,26.1,4.7,38.1
	c9.3,20.3,21.4,39.4,35.5,56.8c26.4,32.5,60.9,58.8,101.3,70.8c5.9,1.8,12,3.2,18,4.4C765.1,585,766.7,584.4,765.8,587.1z"/>
</svg>
