<?xml version="1.0" encoding="utf-8"?>
<!-- Generator: Adobe Illustrator 19.0.0, SVG Export Plug-In . SVG Version: 6.00 Build 0)  -->
<!DOCTYPE svg PUBLIC "-//W3C//DTD SVG 1.1//EN" "http://www.w3.org/Graphics/SVG/1.1/DTD/svg11.dtd">
<svg version="1.1" id="Layer_1" xmlns="http://www.w3.org/2000/svg" xmlns:xlink="http://www.w3.org/1999/xlink" x="0px" y="0px"
	 viewBox="-99 -116 1024 1024" style="enable-background:new -99 -116 1024 1024;" xml:space="preserve">
<path style="fill: #fff;" d="M761.2-116H64.8C-25.6-116-99-42.6-99,47.8v696.3C-99,834.6-25.6,908,64.8,908h696.3c90.5,0,163.8-73.4,163.8-163.8V47.8
	C925-42.6,851.6-116,761.2-116z M724.3,241.5c0.3,6.7,0.5,13.4,0.5,20.1c0,205.4-156.4,442.3-442.3,442.3
	c-87.8,0-169.5-25.7-238.3-69.8c12.2,1.4,24.5,2.2,37.1,2.2c72.8,0,139.9-24.9,193.1-66.6c-68-1.3-125.4-46.2-145.2-108
	c9.5,1.8,19.2,2.8,29.2,2.8c14.2,0,27.9-1.9,41-5.5c-71.1-14.3-124.7-77.1-124.7-152.4c0-0.7,0-1.3,0-2c21,11.6,44.9,18.6,70.4,19.4
	c-41.7-27.9-69.2-75.5-69.2-129.4c0-28.5,7.7-55.2,21.1-78.2c76.7,94.1,191.2,155.9,320.4,162.4c-2.7-11.4-4-23.2-4-35.4
	c0-85.9,69.6-155.5,155.5-155.5c44.7,0,85.1,18.9,113.5,49.1c35.4-7,68.7-19.9,98.7-37.7c-11.6,36.3-36.3,66.8-68.4,86
	c31.4-3.8,61.4-12.1,89.3-24.5c0,0,0,0,0,0l0,0c0,0,0,0,0,0C781,192.2,754.7,219.5,724.3,241.5z"/>
</svg>
