<?xml version="1.0" encoding="utf-8"?>
<!-- Generator: Adobe Illustrator 19.0.0, SVG Export Plug-In . SVG Version: 6.00 Build 0)  -->
<svg version="1.1" id="Layer_1" xmlns="http://www.w3.org/2000/svg" xmlns:xlink="http://www.w3.org/1999/xlink" x="0px" y="0px"
	 viewBox="280.3 211.2 471.3 334.1" style="enable-background:new 280.3 211.2 471.3 334.1;" xml:space="preserve">
<style type="text/css">
	.st0{fill:#FFFFFF;}
</style>
<g>
	<path class="st0" d="M744.4,272c-9-35.9-25.8-49.8-56.8-54.8c-17.9-2.6-103.7-6-171.8-6h0.3c-68.1,0-153.9,3.4-171.8,6
		c-31,5-47.8,18.8-56.8,54.8c-3,12.1-7.2,78.2-7.2,103.5v5.5c0,25.2,4.2,91.4,7.2,103.5c9,35.9,25.8,49.8,56.8,54.8
		c17.9,2.6,103.7,6,171.8,6h-0.3c68.1,0,153.9-3.4,171.8-6c31-5,47.8-18.8,56.8-54.8c3-12.1,7.2-78.2,7.2-103.5v-5.5
		C751.6,350.2,747.4,284.1,744.4,272z M467.1,444.4V310.6l125.2,65.3L467.1,444.4z"/>
</g>
</svg>
