<svg xmlns="http://www.w3.org/2000/svg" xmlns:xlink="http://www.w3.org/1999/xlink" version="1.1" x="0px" y="0px" viewBox="0 0 822 822" enable-background="new 0 0 822 822" xml:space="preserve"><style></style><g><path d="M639.4 287c-9-35.9-25.8-49.8-56.8-54.8c-17.9-2.6-103.7-6-171.8-6l0.3 0c-68.1 0-153.9 3.4-171.8 6 c-31 5-47.8 18.8-56.8 54.8c-3 12.1-7.2 78.2-7.2 103.5v5.5c0 25.2 4.2 91.4 7.2 103.5c9 35.9 25.8 49.8 56.8 54.8 c17.9 2.6 103.7 6 171.8 6l-0.3 0c68.1 0 153.9-3.4 171.8-6c31-5 47.8-18.8 56.8-54.8c3-12.1 7.2-78.2 7.2-103.5v-5.5 C646.6 365.2 642.4 299.1 639.4 287z M362.1 459.4V325.6l125.2 65.3L362.1 459.4z" class="style0"/></g></svg>